<mxfile host="app.diagrams.net" modified="2024-03-09T23:22:56.953Z" agent="Mozilla/5.0 (Windows NT 10.0; Win64; x64) AppleWebKit/537.36 (KHTML, like Gecko) Chrome/122.0.0.0 Safari/537.36" etag="kYWjqPGiIMv27AtWrhr5" version="24.0.2" type="device">
  <diagram name="PÃ¡gina-1" id="-5B4WaMJX5KkSV4fZgF9">
    <mxGraphModel dx="1645" dy="1786" grid="1" gridSize="10" guides="1" tooltips="1" connect="1" arrows="1" fold="1" page="1" pageScale="1" pageWidth="827" pageHeight="1169" math="0" shadow="0">
      <root>
        <mxCell id="0" />
        <mxCell id="1" parent="0" />
        <mxCell id="Fj85bXSeR_-tGHZ6afva-4" value="p" style="edgeStyle=orthogonalEdgeStyle;rounded=0;orthogonalLoop=1;jettySize=auto;html=1;" parent="1" source="Fj85bXSeR_-tGHZ6afva-1" target="Fj85bXSeR_-tGHZ6afva-3" edge="1">
          <mxGeometry relative="1" as="geometry" />
        </mxCell>
        <mxCell id="Fj85bXSeR_-tGHZ6afva-47" value="i" style="edgeStyle=orthogonalEdgeStyle;rounded=0;orthogonalLoop=1;jettySize=auto;html=1;exitX=0.5;exitY=1;exitDx=0;exitDy=0;entryX=0;entryY=0.5;entryDx=0;entryDy=0;" parent="1" source="Fj85bXSeR_-tGHZ6afva-1" target="Fj85bXSeR_-tGHZ6afva-46" edge="1">
          <mxGeometry x="0.7268" relative="1" as="geometry">
            <mxPoint as="offset" />
          </mxGeometry>
        </mxCell>
        <mxCell id="Fj85bXSeR_-tGHZ6afva-81" value="r" style="edgeStyle=orthogonalEdgeStyle;rounded=0;orthogonalLoop=1;jettySize=auto;html=1;exitX=0.5;exitY=1;exitDx=0;exitDy=0;entryX=0;entryY=0.5;entryDx=0;entryDy=0;" parent="1" source="Fj85bXSeR_-tGHZ6afva-1" target="Fj85bXSeR_-tGHZ6afva-80" edge="1">
          <mxGeometry x="0.8494" relative="1" as="geometry">
            <mxPoint as="offset" />
          </mxGeometry>
        </mxCell>
        <mxCell id="Fj85bXSeR_-tGHZ6afva-101" value="b" style="edgeStyle=orthogonalEdgeStyle;rounded=0;orthogonalLoop=1;jettySize=auto;html=1;exitX=0.5;exitY=1;exitDx=0;exitDy=0;entryX=0;entryY=0.5;entryDx=0;entryDy=0;" parent="1" source="Fj85bXSeR_-tGHZ6afva-1" target="Fj85bXSeR_-tGHZ6afva-100" edge="1">
          <mxGeometry x="0.8772" relative="1" as="geometry">
            <mxPoint as="offset" />
          </mxGeometry>
        </mxCell>
        <mxCell id="Fj85bXSeR_-tGHZ6afva-145" value="e" style="edgeStyle=orthogonalEdgeStyle;rounded=0;orthogonalLoop=1;jettySize=auto;html=1;exitX=0.5;exitY=1;exitDx=0;exitDy=0;entryX=0;entryY=0.5;entryDx=0;entryDy=0;" parent="1" source="Fj85bXSeR_-tGHZ6afva-1" target="Fj85bXSeR_-tGHZ6afva-144" edge="1">
          <mxGeometry x="0.9102" relative="1" as="geometry">
            <mxPoint as="offset" />
          </mxGeometry>
        </mxCell>
        <mxCell id="Fj85bXSeR_-tGHZ6afva-172" value="t" style="edgeStyle=orthogonalEdgeStyle;rounded=0;orthogonalLoop=1;jettySize=auto;html=1;exitX=0.5;exitY=1;exitDx=0;exitDy=0;entryX=0;entryY=0.5;entryDx=0;entryDy=0;" parent="1" source="Fj85bXSeR_-tGHZ6afva-1" target="Fj85bXSeR_-tGHZ6afva-171" edge="1">
          <mxGeometry x="0.9293" y="8" relative="1" as="geometry">
            <mxPoint as="offset" />
          </mxGeometry>
        </mxCell>
        <mxCell id="Fj85bXSeR_-tGHZ6afva-189" value="w" style="edgeStyle=orthogonalEdgeStyle;rounded=0;orthogonalLoop=1;jettySize=auto;html=1;exitX=0.5;exitY=1;exitDx=0;exitDy=0;entryX=0;entryY=0.5;entryDx=0;entryDy=0;" parent="1" source="Fj85bXSeR_-tGHZ6afva-1" target="Fj85bXSeR_-tGHZ6afva-188" edge="1">
          <mxGeometry x="0.9361" y="8" relative="1" as="geometry">
            <mxPoint as="offset" />
          </mxGeometry>
        </mxCell>
        <mxCell id="Fj85bXSeR_-tGHZ6afva-211" value="d" style="edgeStyle=orthogonalEdgeStyle;rounded=0;orthogonalLoop=1;jettySize=auto;html=1;exitX=0.5;exitY=1;exitDx=0;exitDy=0;entryX=0;entryY=0.5;entryDx=0;entryDy=0;" parent="1" source="Fj85bXSeR_-tGHZ6afva-1" target="Fj85bXSeR_-tGHZ6afva-210" edge="1">
          <mxGeometry x="0.9417" y="8" relative="1" as="geometry">
            <mxPoint as="offset" />
          </mxGeometry>
        </mxCell>
        <mxCell id="Fj85bXSeR_-tGHZ6afva-219" value="n" style="edgeStyle=orthogonalEdgeStyle;rounded=0;orthogonalLoop=1;jettySize=auto;html=1;exitX=0.5;exitY=1;exitDx=0;exitDy=0;entryX=0;entryY=0.5;entryDx=0;entryDy=0;" parent="1" source="Fj85bXSeR_-tGHZ6afva-1" target="Fj85bXSeR_-tGHZ6afva-218" edge="1">
          <mxGeometry x="0.9464" y="8" relative="1" as="geometry">
            <mxPoint as="offset" />
          </mxGeometry>
        </mxCell>
        <mxCell id="Fj85bXSeR_-tGHZ6afva-255" value="{" style="edgeStyle=orthogonalEdgeStyle;rounded=0;orthogonalLoop=1;jettySize=auto;html=1;exitX=0;exitY=0.5;exitDx=0;exitDy=0;" parent="1" source="Fj85bXSeR_-tGHZ6afva-1" target="Fj85bXSeR_-tGHZ6afva-254" edge="1">
          <mxGeometry x="0.6351" relative="1" as="geometry">
            <mxPoint as="offset" />
          </mxGeometry>
        </mxCell>
        <mxCell id="Fj85bXSeR_-tGHZ6afva-260" value="[a..z] | [A..Z]" style="edgeStyle=orthogonalEdgeStyle;rounded=0;orthogonalLoop=1;jettySize=auto;html=1;exitX=0;exitY=0.5;exitDx=0;exitDy=0;entryX=1;entryY=0.5;entryDx=0;entryDy=0;" parent="1" source="Fj85bXSeR_-tGHZ6afva-1" target="Fj85bXSeR_-tGHZ6afva-259" edge="1">
          <mxGeometry x="0.521" y="-10" relative="1" as="geometry">
            <mxPoint as="offset" />
          </mxGeometry>
        </mxCell>
        <mxCell id="Fj85bXSeR_-tGHZ6afva-265" value="[0..9]" style="edgeStyle=orthogonalEdgeStyle;rounded=0;orthogonalLoop=1;jettySize=auto;html=1;exitX=0;exitY=0.5;exitDx=0;exitDy=0;entryX=1;entryY=0.5;entryDx=0;entryDy=0;" parent="1" source="Fj85bXSeR_-tGHZ6afva-1" target="Fj85bXSeR_-tGHZ6afva-264" edge="1">
          <mxGeometry x="0.668" y="-8" relative="1" as="geometry">
            <mxPoint as="offset" />
          </mxGeometry>
        </mxCell>
        <mxCell id="Fj85bXSeR_-tGHZ6afva-271" value=";" style="edgeStyle=orthogonalEdgeStyle;rounded=0;orthogonalLoop=1;jettySize=auto;html=1;exitX=0;exitY=1;exitDx=0;exitDy=0;entryX=1;entryY=0.5;entryDx=0;entryDy=0;" parent="1" source="Fj85bXSeR_-tGHZ6afva-1" target="Fj85bXSeR_-tGHZ6afva-270" edge="1">
          <mxGeometry x="0.8745" y="-10" relative="1" as="geometry">
            <Array as="points">
              <mxPoint x="386" y="400" />
              <mxPoint x="120" y="400" />
              <mxPoint x="120" y="530" />
            </Array>
            <mxPoint as="offset" />
          </mxGeometry>
        </mxCell>
        <mxCell id="Fj85bXSeR_-tGHZ6afva-273" value=":" style="edgeStyle=orthogonalEdgeStyle;rounded=0;orthogonalLoop=1;jettySize=auto;html=1;exitX=0;exitY=1;exitDx=0;exitDy=0;entryX=0;entryY=0.5;entryDx=0;entryDy=0;" parent="1" source="Fj85bXSeR_-tGHZ6afva-1" target="Fj85bXSeR_-tGHZ6afva-272" edge="1">
          <mxGeometry x="0.8745" y="10" relative="1" as="geometry">
            <Array as="points">
              <mxPoint x="386" y="400" />
              <mxPoint x="120" y="400" />
              <mxPoint x="120" y="530" />
            </Array>
            <mxPoint as="offset" />
          </mxGeometry>
        </mxCell>
        <mxCell id="Fj85bXSeR_-tGHZ6afva-275" value="." style="edgeStyle=orthogonalEdgeStyle;rounded=0;orthogonalLoop=1;jettySize=auto;html=1;exitX=0;exitY=1;exitDx=0;exitDy=0;entryX=1;entryY=0.5;entryDx=0;entryDy=0;" parent="1" source="Fj85bXSeR_-tGHZ6afva-1" target="Fj85bXSeR_-tGHZ6afva-274" edge="1">
          <mxGeometry x="0.8984" y="-10" relative="1" as="geometry">
            <Array as="points">
              <mxPoint x="386" y="400" />
              <mxPoint x="120" y="400" />
              <mxPoint x="120" y="680" />
            </Array>
            <mxPoint as="offset" />
          </mxGeometry>
        </mxCell>
        <mxCell id="Fj85bXSeR_-tGHZ6afva-277" value="," style="edgeStyle=orthogonalEdgeStyle;rounded=0;orthogonalLoop=1;jettySize=auto;html=1;exitX=0;exitY=1;exitDx=0;exitDy=0;entryX=0;entryY=0.5;entryDx=0;entryDy=0;" parent="1" source="Fj85bXSeR_-tGHZ6afva-1" target="Fj85bXSeR_-tGHZ6afva-276" edge="1">
          <mxGeometry x="0.8984" y="10" relative="1" as="geometry">
            <Array as="points">
              <mxPoint x="386" y="400" />
              <mxPoint x="120" y="400" />
              <mxPoint x="120" y="680" />
            </Array>
            <mxPoint as="offset" />
          </mxGeometry>
        </mxCell>
        <mxCell id="Fj85bXSeR_-tGHZ6afva-280" value="(" style="edgeStyle=orthogonalEdgeStyle;rounded=0;orthogonalLoop=1;jettySize=auto;html=1;exitX=0;exitY=1;exitDx=0;exitDy=0;entryX=1;entryY=0.5;entryDx=0;entryDy=0;" parent="1" source="Fj85bXSeR_-tGHZ6afva-1" target="Fj85bXSeR_-tGHZ6afva-278" edge="1">
          <mxGeometry x="0.9147" y="-10" relative="1" as="geometry">
            <Array as="points">
              <mxPoint x="386" y="400" />
              <mxPoint x="120" y="400" />
              <mxPoint x="120" y="830" />
            </Array>
            <mxPoint as="offset" />
          </mxGeometry>
        </mxCell>
        <mxCell id="Fj85bXSeR_-tGHZ6afva-281" value=")" style="edgeStyle=orthogonalEdgeStyle;rounded=0;orthogonalLoop=1;jettySize=auto;html=1;exitX=0;exitY=1;exitDx=0;exitDy=0;entryX=0;entryY=0.5;entryDx=0;entryDy=0;" parent="1" source="Fj85bXSeR_-tGHZ6afva-1" target="Fj85bXSeR_-tGHZ6afva-279" edge="1">
          <mxGeometry x="0.9147" y="10" relative="1" as="geometry">
            <Array as="points">
              <mxPoint x="386" y="400" />
              <mxPoint x="120" y="400" />
              <mxPoint x="120" y="830" />
            </Array>
            <mxPoint as="offset" />
          </mxGeometry>
        </mxCell>
        <mxCell id="Fj85bXSeR_-tGHZ6afva-288" value="+" style="edgeStyle=orthogonalEdgeStyle;rounded=0;orthogonalLoop=1;jettySize=auto;html=1;exitX=1;exitY=0;exitDx=0;exitDy=0;entryX=1;entryY=0.5;entryDx=0;entryDy=0;" parent="1" source="Fj85bXSeR_-tGHZ6afva-1" target="Fj85bXSeR_-tGHZ6afva-284" edge="1">
          <mxGeometry x="0.7106" y="-10" relative="1" as="geometry">
            <Array as="points">
              <mxPoint x="490" y="182" />
              <mxPoint x="490" y="-360" />
            </Array>
            <mxPoint as="offset" />
          </mxGeometry>
        </mxCell>
        <mxCell id="Fj85bXSeR_-tGHZ6afva-289" value="-" style="edgeStyle=orthogonalEdgeStyle;rounded=0;orthogonalLoop=1;jettySize=auto;html=1;exitX=1;exitY=0;exitDx=0;exitDy=0;entryX=1;entryY=0.5;entryDx=0;entryDy=0;" parent="1" source="Fj85bXSeR_-tGHZ6afva-1" target="Fj85bXSeR_-tGHZ6afva-285" edge="1">
          <mxGeometry x="0.7574" y="-10" relative="1" as="geometry">
            <Array as="points">
              <mxPoint x="490" y="182" />
              <mxPoint x="490" y="-520" />
            </Array>
            <mxPoint as="offset" />
          </mxGeometry>
        </mxCell>
        <mxCell id="Fj85bXSeR_-tGHZ6afva-290" value="o" style="edgeStyle=orthogonalEdgeStyle;rounded=0;orthogonalLoop=1;jettySize=auto;html=1;exitX=1;exitY=0;exitDx=0;exitDy=0;entryX=1;entryY=0.5;entryDx=0;entryDy=0;" parent="1" source="Fj85bXSeR_-tGHZ6afva-1" target="Fj85bXSeR_-tGHZ6afva-286" edge="1">
          <mxGeometry x="0.7912" y="-10" relative="1" as="geometry">
            <Array as="points">
              <mxPoint x="490" y="182" />
              <mxPoint x="490" y="-680" />
            </Array>
            <mxPoint as="offset" />
          </mxGeometry>
        </mxCell>
        <mxCell id="Fj85bXSeR_-tGHZ6afva-302" value="*" style="edgeStyle=orthogonalEdgeStyle;rounded=0;orthogonalLoop=1;jettySize=auto;html=1;exitX=1;exitY=0;exitDx=0;exitDy=0;entryX=0;entryY=0.5;entryDx=0;entryDy=0;" parent="1" source="Fj85bXSeR_-tGHZ6afva-1" target="Fj85bXSeR_-tGHZ6afva-297" edge="1">
          <mxGeometry x="0.6999" y="10" relative="1" as="geometry">
            <Array as="points">
              <mxPoint x="490" y="182" />
              <mxPoint x="490" y="-360" />
            </Array>
            <mxPoint as="offset" />
          </mxGeometry>
        </mxCell>
        <mxCell id="Fj85bXSeR_-tGHZ6afva-303" value="/" style="edgeStyle=orthogonalEdgeStyle;rounded=0;orthogonalLoop=1;jettySize=auto;html=1;exitX=1;exitY=0;exitDx=0;exitDy=0;entryX=0;entryY=0.5;entryDx=0;entryDy=0;" parent="1" source="Fj85bXSeR_-tGHZ6afva-1" target="Fj85bXSeR_-tGHZ6afva-298" edge="1">
          <mxGeometry x="0.7424" y="10" relative="1" as="geometry">
            <Array as="points">
              <mxPoint x="490" y="182" />
              <mxPoint x="490" y="-520" />
            </Array>
            <mxPoint as="offset" />
          </mxGeometry>
        </mxCell>
        <mxCell id="Fj85bXSeR_-tGHZ6afva-305" value="a" style="edgeStyle=orthogonalEdgeStyle;rounded=0;orthogonalLoop=1;jettySize=auto;html=1;exitX=1;exitY=0;exitDx=0;exitDy=0;entryX=0;entryY=0.5;entryDx=0;entryDy=0;" parent="1" source="Fj85bXSeR_-tGHZ6afva-1" target="Fj85bXSeR_-tGHZ6afva-299" edge="1">
          <mxGeometry x="0.7777" y="10" relative="1" as="geometry">
            <Array as="points">
              <mxPoint x="490" y="182" />
              <mxPoint x="490" y="-680" />
            </Array>
            <mxPoint as="offset" />
          </mxGeometry>
        </mxCell>
        <mxCell id="Fj85bXSeR_-tGHZ6afva-321" value="&amp;lt;" style="edgeStyle=orthogonalEdgeStyle;rounded=0;orthogonalLoop=1;jettySize=auto;html=1;exitX=1;exitY=0;exitDx=0;exitDy=0;entryX=1;entryY=0.5;entryDx=0;entryDy=0;" parent="1" source="Fj85bXSeR_-tGHZ6afva-1" target="Fj85bXSeR_-tGHZ6afva-316" edge="1">
          <mxGeometry x="0.9069" y="-10" relative="1" as="geometry">
            <Array as="points">
              <mxPoint x="490" y="182" />
              <mxPoint x="490" y="-950" />
            </Array>
            <mxPoint as="offset" />
          </mxGeometry>
        </mxCell>
        <mxCell id="Fj85bXSeR_-tGHZ6afva-322" value="&amp;gt;" style="edgeStyle=orthogonalEdgeStyle;rounded=0;orthogonalLoop=1;jettySize=auto;html=1;exitX=1;exitY=0;exitDx=0;exitDy=0;entryX=0;entryY=0.5;entryDx=0;entryDy=0;" parent="1" source="Fj85bXSeR_-tGHZ6afva-1" target="Fj85bXSeR_-tGHZ6afva-317" edge="1">
          <mxGeometry x="0.9069" y="10" relative="1" as="geometry">
            <Array as="points">
              <mxPoint x="490" y="182" />
              <mxPoint x="490" y="-950" />
            </Array>
            <mxPoint as="offset" />
          </mxGeometry>
        </mxCell>
        <mxCell id="Fj85bXSeR_-tGHZ6afva-1" value="S0" style="ellipse;whiteSpace=wrap;html=1;aspect=fixed;" parent="1" vertex="1">
          <mxGeometry x="374" y="170" width="80" height="80" as="geometry" />
        </mxCell>
        <mxCell id="Fj85bXSeR_-tGHZ6afva-2" value="&quot; &quot;&amp;nbsp;&lt;span style=&quot;font-size:11.0pt;line-height:107%;&lt;br/&gt;font-family:&amp;quot;Aptos&amp;quot;,sans-serif;mso-ascii-theme-font:minor-latin;mso-fareast-font-family:&lt;br/&gt;Aptos;mso-fareast-theme-font:minor-latin;mso-hansi-theme-font:minor-latin;&lt;br/&gt;mso-bidi-font-family:&amp;quot;Times New Roman&amp;quot;;mso-bidi-theme-font:minor-bidi;&lt;br/&gt;mso-ansi-language:PT-BR;mso-fareast-language:EN-US;mso-bidi-language:AR-SA&quot;&gt;|&amp;nbsp;&lt;/span&gt;&lt;span style=&quot;font-size:11.0pt;line-height:107%;&lt;br/&gt;font-family:&amp;quot;Aptos&amp;quot;,sans-serif;mso-ascii-theme-font:minor-latin;mso-fareast-font-family:&lt;br/&gt;Aptos;mso-fareast-theme-font:minor-latin;mso-hansi-theme-font:minor-latin;&lt;br/&gt;mso-bidi-font-family:&amp;quot;Times New Roman&amp;quot;;mso-bidi-theme-font:minor-bidi;&lt;br/&gt;mso-ansi-language:PT-BR;mso-fareast-language:EN-US;mso-bidi-language:AR-SA&quot;&gt;\t&amp;nbsp;&lt;/span&gt;&lt;span style=&quot;font-size: 11pt; line-height: 15.6933px;&quot;&gt;|&amp;nbsp;&lt;/span&gt;&lt;span style=&quot;font-size: 11pt; line-height: 15.6933px; font-family: Aptos, sans-serif;&quot;&gt;\u&amp;nbsp;&lt;/span&gt;&lt;span style=&quot;font-size: 11pt; line-height: 15.6933px;&quot;&gt;|&amp;nbsp;&lt;/span&gt;&lt;span style=&quot;font-size: 11pt; line-height: 15.6933px; font-family: Aptos, sans-serif;&quot;&gt;\n&lt;/span&gt;" style="curved=1;endArrow=classic;html=1;rounded=0;entryX=0;entryY=0;entryDx=0;entryDy=0;exitX=1;exitY=0;exitDx=0;exitDy=0;" parent="1" source="Fj85bXSeR_-tGHZ6afva-1" target="Fj85bXSeR_-tGHZ6afva-1" edge="1">
          <mxGeometry x="-0.0268" y="-10" width="50" height="50" relative="1" as="geometry">
            <mxPoint x="320" y="420" as="sourcePoint" />
            <mxPoint x="370" y="370" as="targetPoint" />
            <Array as="points">
              <mxPoint x="440" y="150" />
              <mxPoint x="420" y="140" />
              <mxPoint x="400" y="150" />
            </Array>
            <mxPoint x="4" y="-1" as="offset" />
          </mxGeometry>
        </mxCell>
        <mxCell id="Fj85bXSeR_-tGHZ6afva-8" value="r" style="edgeStyle=orthogonalEdgeStyle;rounded=0;orthogonalLoop=1;jettySize=auto;html=1;" parent="1" source="Fj85bXSeR_-tGHZ6afva-3" target="Fj85bXSeR_-tGHZ6afva-7" edge="1">
          <mxGeometry relative="1" as="geometry" />
        </mxCell>
        <mxCell id="Fj85bXSeR_-tGHZ6afva-3" value="S1" style="ellipse;whiteSpace=wrap;html=1;aspect=fixed;" parent="1" vertex="1">
          <mxGeometry x="520" y="170" width="80" height="80" as="geometry" />
        </mxCell>
        <mxCell id="Fj85bXSeR_-tGHZ6afva-5" value="V - {r}" style="endArrow=classic;html=1;rounded=0;exitX=0.5;exitY=0;exitDx=0;exitDy=0;align=right;labelPosition=left;verticalLabelPosition=top;verticalAlign=bottom;" parent="1" source="Fj85bXSeR_-tGHZ6afva-3" edge="1">
          <mxGeometry x="-0.122" y="-3" width="50" height="50" relative="1" as="geometry">
            <mxPoint x="560" y="160" as="sourcePoint" />
            <mxPoint x="600" y="120" as="targetPoint" />
            <mxPoint as="offset" />
          </mxGeometry>
        </mxCell>
        <mxCell id="Fj85bXSeR_-tGHZ6afva-6" value="alfa" style="text;html=1;align=center;verticalAlign=middle;whiteSpace=wrap;rounded=0;" parent="1" vertex="1">
          <mxGeometry x="580" y="100" width="60" height="30" as="geometry" />
        </mxCell>
        <mxCell id="Fj85bXSeR_-tGHZ6afva-12" value="o" style="edgeStyle=orthogonalEdgeStyle;rounded=0;orthogonalLoop=1;jettySize=auto;html=1;" parent="1" source="Fj85bXSeR_-tGHZ6afva-7" target="Fj85bXSeR_-tGHZ6afva-11" edge="1">
          <mxGeometry relative="1" as="geometry" />
        </mxCell>
        <mxCell id="Fj85bXSeR_-tGHZ6afva-7" value="S2" style="ellipse;whiteSpace=wrap;html=1;aspect=fixed;" parent="1" vertex="1">
          <mxGeometry x="670" y="170" width="80" height="80" as="geometry" />
        </mxCell>
        <mxCell id="Fj85bXSeR_-tGHZ6afva-9" value="V - {o}" style="endArrow=classic;html=1;rounded=0;align=right;labelPosition=left;verticalLabelPosition=top;verticalAlign=bottom;" parent="1" edge="1">
          <mxGeometry x="-0.122" y="-3" width="50" height="50" relative="1" as="geometry">
            <mxPoint x="710" y="170" as="sourcePoint" />
            <mxPoint x="750" y="120" as="targetPoint" />
            <mxPoint as="offset" />
          </mxGeometry>
        </mxCell>
        <mxCell id="Fj85bXSeR_-tGHZ6afva-10" value="alfa" style="text;html=1;align=center;verticalAlign=middle;whiteSpace=wrap;rounded=0;" parent="1" vertex="1">
          <mxGeometry x="730" y="100" width="60" height="30" as="geometry" />
        </mxCell>
        <mxCell id="Fj85bXSeR_-tGHZ6afva-16" value="g" style="edgeStyle=orthogonalEdgeStyle;rounded=0;orthogonalLoop=1;jettySize=auto;html=1;" parent="1" source="Fj85bXSeR_-tGHZ6afva-11" target="Fj85bXSeR_-tGHZ6afva-15" edge="1">
          <mxGeometry relative="1" as="geometry" />
        </mxCell>
        <mxCell id="Fj85bXSeR_-tGHZ6afva-231" value="c" style="edgeStyle=orthogonalEdgeStyle;rounded=0;orthogonalLoop=1;jettySize=auto;html=1;" parent="1" source="Fj85bXSeR_-tGHZ6afva-11" target="Fj85bXSeR_-tGHZ6afva-230" edge="1">
          <mxGeometry relative="1" as="geometry" />
        </mxCell>
        <mxCell id="Fj85bXSeR_-tGHZ6afva-11" value="S3" style="ellipse;whiteSpace=wrap;html=1;aspect=fixed;" parent="1" vertex="1">
          <mxGeometry x="820" y="170" width="80" height="80" as="geometry" />
        </mxCell>
        <mxCell id="Fj85bXSeR_-tGHZ6afva-13" value="V - {g, c}" style="endArrow=classic;html=1;rounded=0;align=left;labelPosition=right;verticalLabelPosition=middle;verticalAlign=middle;" parent="1" edge="1">
          <mxGeometry x="-0.122" y="-3" width="50" height="50" relative="1" as="geometry">
            <mxPoint x="860" y="170" as="sourcePoint" />
            <mxPoint x="900" y="120" as="targetPoint" />
            <mxPoint as="offset" />
          </mxGeometry>
        </mxCell>
        <mxCell id="Fj85bXSeR_-tGHZ6afva-14" value="alfa" style="text;html=1;align=center;verticalAlign=middle;whiteSpace=wrap;rounded=0;" parent="1" vertex="1">
          <mxGeometry x="880" y="100" width="60" height="30" as="geometry" />
        </mxCell>
        <mxCell id="Fj85bXSeR_-tGHZ6afva-20" value="r" style="edgeStyle=orthogonalEdgeStyle;rounded=0;orthogonalLoop=1;jettySize=auto;html=1;" parent="1" source="Fj85bXSeR_-tGHZ6afva-15" target="Fj85bXSeR_-tGHZ6afva-19" edge="1">
          <mxGeometry relative="1" as="geometry" />
        </mxCell>
        <mxCell id="Fj85bXSeR_-tGHZ6afva-15" value="S4" style="ellipse;whiteSpace=wrap;html=1;aspect=fixed;" parent="1" vertex="1">
          <mxGeometry x="970" y="170" width="80" height="80" as="geometry" />
        </mxCell>
        <mxCell id="Fj85bXSeR_-tGHZ6afva-17" value="V - {r}" style="endArrow=classic;html=1;rounded=0;align=right;labelPosition=left;verticalLabelPosition=top;verticalAlign=bottom;" parent="1" edge="1">
          <mxGeometry x="-0.122" y="-3" width="50" height="50" relative="1" as="geometry">
            <mxPoint x="1010" y="170" as="sourcePoint" />
            <mxPoint x="1050" y="120" as="targetPoint" />
            <mxPoint as="offset" />
          </mxGeometry>
        </mxCell>
        <mxCell id="Fj85bXSeR_-tGHZ6afva-18" value="alfa" style="text;html=1;align=center;verticalAlign=middle;whiteSpace=wrap;rounded=0;" parent="1" vertex="1">
          <mxGeometry x="1030" y="100" width="60" height="30" as="geometry" />
        </mxCell>
        <mxCell id="Fj85bXSeR_-tGHZ6afva-24" value="a" style="edgeStyle=orthogonalEdgeStyle;rounded=0;orthogonalLoop=1;jettySize=auto;html=1;" parent="1" source="Fj85bXSeR_-tGHZ6afva-19" target="Fj85bXSeR_-tGHZ6afva-23" edge="1">
          <mxGeometry relative="1" as="geometry" />
        </mxCell>
        <mxCell id="Fj85bXSeR_-tGHZ6afva-19" value="S5" style="ellipse;whiteSpace=wrap;html=1;aspect=fixed;" parent="1" vertex="1">
          <mxGeometry x="1120" y="170" width="80" height="80" as="geometry" />
        </mxCell>
        <mxCell id="Fj85bXSeR_-tGHZ6afva-21" value="V - {a}" style="endArrow=classic;html=1;rounded=0;align=right;labelPosition=left;verticalLabelPosition=top;verticalAlign=bottom;" parent="1" edge="1">
          <mxGeometry x="-0.122" y="-3" width="50" height="50" relative="1" as="geometry">
            <mxPoint x="1161" y="170" as="sourcePoint" />
            <mxPoint x="1201" y="120" as="targetPoint" />
            <mxPoint as="offset" />
          </mxGeometry>
        </mxCell>
        <mxCell id="Fj85bXSeR_-tGHZ6afva-22" value="alfa" style="text;html=1;align=center;verticalAlign=middle;whiteSpace=wrap;rounded=0;" parent="1" vertex="1">
          <mxGeometry x="1181" y="100" width="60" height="30" as="geometry" />
        </mxCell>
        <mxCell id="Fj85bXSeR_-tGHZ6afva-29" value="m" style="edgeStyle=orthogonalEdgeStyle;rounded=0;orthogonalLoop=1;jettySize=auto;html=1;" parent="1" source="Fj85bXSeR_-tGHZ6afva-23" target="Fj85bXSeR_-tGHZ6afva-28" edge="1">
          <mxGeometry relative="1" as="geometry" />
        </mxCell>
        <mxCell id="Fj85bXSeR_-tGHZ6afva-23" value="S6" style="ellipse;whiteSpace=wrap;html=1;aspect=fixed;" parent="1" vertex="1">
          <mxGeometry x="1270" y="170" width="80" height="80" as="geometry" />
        </mxCell>
        <mxCell id="Fj85bXSeR_-tGHZ6afva-25" value="V - {m}" style="endArrow=classic;html=1;rounded=0;align=right;labelPosition=left;verticalLabelPosition=top;verticalAlign=bottom;" parent="1" edge="1">
          <mxGeometry x="-0.122" y="-3" width="50" height="50" relative="1" as="geometry">
            <mxPoint x="1310" y="170" as="sourcePoint" />
            <mxPoint x="1350" y="120" as="targetPoint" />
            <mxPoint as="offset" />
          </mxGeometry>
        </mxCell>
        <mxCell id="Fj85bXSeR_-tGHZ6afva-26" value="alfa" style="text;html=1;align=center;verticalAlign=middle;whiteSpace=wrap;rounded=0;" parent="1" vertex="1">
          <mxGeometry x="1330" y="100" width="60" height="30" as="geometry" />
        </mxCell>
        <mxCell id="Fj85bXSeR_-tGHZ6afva-28" value="S7" style="ellipse;whiteSpace=wrap;html=1;aspect=fixed;perimeterSpacing=0;shadow=0;textShadow=0;gradientColor=none;sketch=1;curveFitting=1;jiggle=2;" parent="1" vertex="1">
          <mxGeometry x="1420" y="170" width="80" height="80" as="geometry" />
        </mxCell>
        <mxCell id="Fj85bXSeR_-tGHZ6afva-30" value="V" style="endArrow=none;html=1;rounded=0;startArrow=classic;startFill=1;endFill=0;" parent="1" edge="1">
          <mxGeometry width="50" height="50" relative="1" as="geometry">
            <mxPoint x="1410" y="300" as="sourcePoint" />
            <mxPoint x="1460" y="250" as="targetPoint" />
          </mxGeometry>
        </mxCell>
        <mxCell id="Fj85bXSeR_-tGHZ6afva-31" value="alfa" style="text;html=1;align=center;verticalAlign=middle;resizable=0;points=[];autosize=1;strokeColor=none;fillColor=none;" parent="1" vertex="1">
          <mxGeometry x="1380" y="288" width="40" height="30" as="geometry" />
        </mxCell>
        <mxCell id="Fj85bXSeR_-tGHZ6afva-32" value="V = [a..z_0..9]" style="text;html=1;align=center;verticalAlign=middle;resizable=0;points=[];autosize=1;strokeColor=none;fillColor=none;" parent="1" vertex="1">
          <mxGeometry x="364" y="40" width="100" height="30" as="geometry" />
        </mxCell>
        <mxCell id="Fj85bXSeR_-tGHZ6afva-38" value="a" style="edgeStyle=orthogonalEdgeStyle;rounded=0;orthogonalLoop=1;jettySize=auto;html=1;" parent="1" source="Fj85bXSeR_-tGHZ6afva-33" target="Fj85bXSeR_-tGHZ6afva-37" edge="1">
          <mxGeometry relative="1" as="geometry" />
        </mxCell>
        <mxCell id="Fj85bXSeR_-tGHZ6afva-33" value="S8" style="ellipse;whiteSpace=wrap;html=1;aspect=fixed;" parent="1" vertex="1">
          <mxGeometry x="520" y="318" width="80" height="80" as="geometry" />
        </mxCell>
        <mxCell id="Fj85bXSeR_-tGHZ6afva-34" value="v" style="endArrow=classic;html=1;rounded=0;exitX=0.5;exitY=1;exitDx=0;exitDy=0;entryX=0;entryY=0.5;entryDx=0;entryDy=0;" parent="1" source="Fj85bXSeR_-tGHZ6afva-1" target="Fj85bXSeR_-tGHZ6afva-33" edge="1">
          <mxGeometry x="0.5327" width="50" height="50" relative="1" as="geometry">
            <mxPoint x="450" y="360" as="sourcePoint" />
            <mxPoint x="500" y="310" as="targetPoint" />
            <Array as="points">
              <mxPoint x="414" y="358" />
            </Array>
            <mxPoint as="offset" />
          </mxGeometry>
        </mxCell>
        <mxCell id="Fj85bXSeR_-tGHZ6afva-35" value="V - {a}" style="endArrow=classic;html=1;rounded=0;exitX=0.5;exitY=0;exitDx=0;exitDy=0;align=right;labelPosition=left;verticalLabelPosition=top;verticalAlign=bottom;" parent="1" edge="1">
          <mxGeometry x="-0.122" y="-3" width="50" height="50" relative="1" as="geometry">
            <mxPoint x="560" y="318" as="sourcePoint" />
            <mxPoint x="600" y="268" as="targetPoint" />
            <mxPoint as="offset" />
          </mxGeometry>
        </mxCell>
        <mxCell id="Fj85bXSeR_-tGHZ6afva-36" value="alfa" style="text;html=1;align=center;verticalAlign=middle;whiteSpace=wrap;rounded=0;" parent="1" vertex="1">
          <mxGeometry x="580" y="248" width="60" height="30" as="geometry" />
        </mxCell>
        <mxCell id="Fj85bXSeR_-tGHZ6afva-43" value="r" style="edgeStyle=orthogonalEdgeStyle;rounded=0;orthogonalLoop=1;jettySize=auto;html=1;" parent="1" source="Fj85bXSeR_-tGHZ6afva-37" target="Fj85bXSeR_-tGHZ6afva-42" edge="1">
          <mxGeometry relative="1" as="geometry" />
        </mxCell>
        <mxCell id="Fj85bXSeR_-tGHZ6afva-37" value="S9" style="ellipse;whiteSpace=wrap;html=1;aspect=fixed;" parent="1" vertex="1">
          <mxGeometry x="670" y="318" width="80" height="80" as="geometry" />
        </mxCell>
        <mxCell id="Fj85bXSeR_-tGHZ6afva-39" value="V - {r}" style="endArrow=classic;html=1;rounded=0;exitX=0.5;exitY=0;exitDx=0;exitDy=0;align=right;labelPosition=left;verticalLabelPosition=top;verticalAlign=bottom;" parent="1" edge="1">
          <mxGeometry x="-0.122" y="-3" width="50" height="50" relative="1" as="geometry">
            <mxPoint x="710" y="318" as="sourcePoint" />
            <mxPoint x="750" y="268" as="targetPoint" />
            <mxPoint as="offset" />
          </mxGeometry>
        </mxCell>
        <mxCell id="Fj85bXSeR_-tGHZ6afva-40" value="alfa" style="text;html=1;align=center;verticalAlign=middle;whiteSpace=wrap;rounded=0;" parent="1" vertex="1">
          <mxGeometry x="730" y="248" width="60" height="30" as="geometry" />
        </mxCell>
        <mxCell id="Fj85bXSeR_-tGHZ6afva-42" value="S10" style="ellipse;whiteSpace=wrap;html=1;aspect=fixed;sketch=1;curveFitting=1;jiggle=2;" parent="1" vertex="1">
          <mxGeometry x="820" y="318" width="80" height="80" as="geometry" />
        </mxCell>
        <mxCell id="Fj85bXSeR_-tGHZ6afva-44" value="V" style="endArrow=none;startArrow=classic;html=1;rounded=0;endFill=0;" parent="1" edge="1">
          <mxGeometry width="50" height="50" relative="1" as="geometry">
            <mxPoint x="810" y="448" as="sourcePoint" />
            <mxPoint x="860" y="398" as="targetPoint" />
          </mxGeometry>
        </mxCell>
        <mxCell id="Fj85bXSeR_-tGHZ6afva-45" value="alfa" style="text;html=1;align=center;verticalAlign=middle;resizable=0;points=[];autosize=1;strokeColor=none;fillColor=none;" parent="1" vertex="1">
          <mxGeometry x="780" y="440" width="40" height="30" as="geometry" />
        </mxCell>
        <mxCell id="Fj85bXSeR_-tGHZ6afva-51" value="n" style="edgeStyle=orthogonalEdgeStyle;rounded=0;orthogonalLoop=1;jettySize=auto;html=1;" parent="1" source="Fj85bXSeR_-tGHZ6afva-46" target="Fj85bXSeR_-tGHZ6afva-50" edge="1">
          <mxGeometry relative="1" as="geometry" />
        </mxCell>
        <mxCell id="Fj85bXSeR_-tGHZ6afva-77" value="f" style="edgeStyle=orthogonalEdgeStyle;rounded=0;orthogonalLoop=1;jettySize=auto;html=1;" parent="1" source="Fj85bXSeR_-tGHZ6afva-46" target="Fj85bXSeR_-tGHZ6afva-76" edge="1">
          <mxGeometry relative="1" as="geometry" />
        </mxCell>
        <mxCell id="Fj85bXSeR_-tGHZ6afva-46" value="S11" style="ellipse;whiteSpace=wrap;html=1;aspect=fixed;" parent="1" vertex="1">
          <mxGeometry x="520" y="470" width="80" height="80" as="geometry" />
        </mxCell>
        <mxCell id="Fj85bXSeR_-tGHZ6afva-48" value="V - {f, n}" style="endArrow=classic;html=1;rounded=0;exitX=0.5;exitY=0;exitDx=0;exitDy=0;align=right;labelPosition=left;verticalLabelPosition=top;verticalAlign=bottom;" parent="1" edge="1">
          <mxGeometry x="-0.122" y="-3" width="50" height="50" relative="1" as="geometry">
            <mxPoint x="560" y="470" as="sourcePoint" />
            <mxPoint x="600" y="420" as="targetPoint" />
            <mxPoint as="offset" />
          </mxGeometry>
        </mxCell>
        <mxCell id="Fj85bXSeR_-tGHZ6afva-49" value="alfa" style="text;html=1;align=center;verticalAlign=middle;whiteSpace=wrap;rounded=0;" parent="1" vertex="1">
          <mxGeometry x="580" y="400" width="60" height="30" as="geometry" />
        </mxCell>
        <mxCell id="Fj85bXSeR_-tGHZ6afva-55" value="t" style="edgeStyle=orthogonalEdgeStyle;rounded=0;orthogonalLoop=1;jettySize=auto;html=1;" parent="1" source="Fj85bXSeR_-tGHZ6afva-50" target="Fj85bXSeR_-tGHZ6afva-54" edge="1">
          <mxGeometry relative="1" as="geometry" />
        </mxCell>
        <mxCell id="Fj85bXSeR_-tGHZ6afva-50" value="S12" style="ellipse;whiteSpace=wrap;html=1;aspect=fixed;" parent="1" vertex="1">
          <mxGeometry x="670" y="470" width="80" height="80" as="geometry" />
        </mxCell>
        <mxCell id="Fj85bXSeR_-tGHZ6afva-52" value="V - {t}" style="endArrow=classic;html=1;rounded=0;exitX=0.5;exitY=0;exitDx=0;exitDy=0;align=right;labelPosition=left;verticalLabelPosition=top;verticalAlign=bottom;" parent="1" edge="1">
          <mxGeometry x="-0.122" y="-3" width="50" height="50" relative="1" as="geometry">
            <mxPoint x="710" y="470" as="sourcePoint" />
            <mxPoint x="750" y="420" as="targetPoint" />
            <mxPoint as="offset" />
          </mxGeometry>
        </mxCell>
        <mxCell id="Fj85bXSeR_-tGHZ6afva-53" value="alfa" style="text;html=1;align=center;verticalAlign=middle;whiteSpace=wrap;rounded=0;" parent="1" vertex="1">
          <mxGeometry x="730" y="400" width="60" height="30" as="geometry" />
        </mxCell>
        <mxCell id="Fj85bXSeR_-tGHZ6afva-59" value="e" style="edgeStyle=orthogonalEdgeStyle;rounded=0;orthogonalLoop=1;jettySize=auto;html=1;" parent="1" source="Fj85bXSeR_-tGHZ6afva-54" target="Fj85bXSeR_-tGHZ6afva-58" edge="1">
          <mxGeometry relative="1" as="geometry" />
        </mxCell>
        <mxCell id="Fj85bXSeR_-tGHZ6afva-54" value="S13" style="ellipse;whiteSpace=wrap;html=1;aspect=fixed;" parent="1" vertex="1">
          <mxGeometry x="820" y="470" width="80" height="80" as="geometry" />
        </mxCell>
        <mxCell id="Fj85bXSeR_-tGHZ6afva-56" value="V - {e}" style="endArrow=classic;html=1;rounded=0;exitX=0.5;exitY=0;exitDx=0;exitDy=0;align=right;labelPosition=left;verticalLabelPosition=top;verticalAlign=bottom;" parent="1" edge="1">
          <mxGeometry x="-0.122" y="-3" width="50" height="50" relative="1" as="geometry">
            <mxPoint x="860" y="470" as="sourcePoint" />
            <mxPoint x="900" y="420" as="targetPoint" />
            <mxPoint as="offset" />
          </mxGeometry>
        </mxCell>
        <mxCell id="Fj85bXSeR_-tGHZ6afva-57" value="alfa" style="text;html=1;align=center;verticalAlign=middle;whiteSpace=wrap;rounded=0;" parent="1" vertex="1">
          <mxGeometry x="880" y="400" width="60" height="30" as="geometry" />
        </mxCell>
        <mxCell id="Fj85bXSeR_-tGHZ6afva-63" value="g" style="edgeStyle=orthogonalEdgeStyle;rounded=0;orthogonalLoop=1;jettySize=auto;html=1;" parent="1" source="Fj85bXSeR_-tGHZ6afva-58" target="Fj85bXSeR_-tGHZ6afva-62" edge="1">
          <mxGeometry relative="1" as="geometry" />
        </mxCell>
        <mxCell id="Fj85bXSeR_-tGHZ6afva-58" value="S14" style="ellipse;whiteSpace=wrap;html=1;aspect=fixed;" parent="1" vertex="1">
          <mxGeometry x="970" y="470" width="80" height="80" as="geometry" />
        </mxCell>
        <mxCell id="Fj85bXSeR_-tGHZ6afva-60" value="V - {g}" style="endArrow=classic;html=1;rounded=0;exitX=0.5;exitY=0;exitDx=0;exitDy=0;align=right;labelPosition=left;verticalLabelPosition=top;verticalAlign=bottom;" parent="1" edge="1">
          <mxGeometry x="-0.122" y="-3" width="50" height="50" relative="1" as="geometry">
            <mxPoint x="1010" y="470" as="sourcePoint" />
            <mxPoint x="1050" y="420" as="targetPoint" />
            <mxPoint as="offset" />
          </mxGeometry>
        </mxCell>
        <mxCell id="Fj85bXSeR_-tGHZ6afva-61" value="alfa" style="text;html=1;align=center;verticalAlign=middle;whiteSpace=wrap;rounded=0;" parent="1" vertex="1">
          <mxGeometry x="1030" y="400" width="60" height="30" as="geometry" />
        </mxCell>
        <mxCell id="Fj85bXSeR_-tGHZ6afva-68" value="e" style="edgeStyle=orthogonalEdgeStyle;rounded=0;orthogonalLoop=1;jettySize=auto;html=1;" parent="1" source="Fj85bXSeR_-tGHZ6afva-62" target="Fj85bXSeR_-tGHZ6afva-66" edge="1">
          <mxGeometry relative="1" as="geometry" />
        </mxCell>
        <mxCell id="Fj85bXSeR_-tGHZ6afva-62" value="S15" style="ellipse;whiteSpace=wrap;html=1;aspect=fixed;" parent="1" vertex="1">
          <mxGeometry x="1120" y="470" width="80" height="80" as="geometry" />
        </mxCell>
        <mxCell id="Fj85bXSeR_-tGHZ6afva-64" value="V - {e}" style="endArrow=classic;html=1;rounded=0;exitX=0.5;exitY=0;exitDx=0;exitDy=0;align=right;labelPosition=left;verticalLabelPosition=top;verticalAlign=bottom;" parent="1" edge="1">
          <mxGeometry x="-0.122" y="-3" width="50" height="50" relative="1" as="geometry">
            <mxPoint x="1160" y="470" as="sourcePoint" />
            <mxPoint x="1200" y="420" as="targetPoint" />
            <mxPoint as="offset" />
          </mxGeometry>
        </mxCell>
        <mxCell id="Fj85bXSeR_-tGHZ6afva-65" value="alfa" style="text;html=1;align=center;verticalAlign=middle;whiteSpace=wrap;rounded=0;" parent="1" vertex="1">
          <mxGeometry x="1180" y="400" width="60" height="30" as="geometry" />
        </mxCell>
        <mxCell id="Fj85bXSeR_-tGHZ6afva-72" value="r" style="edgeStyle=orthogonalEdgeStyle;rounded=0;orthogonalLoop=1;jettySize=auto;html=1;" parent="1" source="Fj85bXSeR_-tGHZ6afva-66" target="Fj85bXSeR_-tGHZ6afva-71" edge="1">
          <mxGeometry relative="1" as="geometry" />
        </mxCell>
        <mxCell id="Fj85bXSeR_-tGHZ6afva-66" value="S16" style="ellipse;whiteSpace=wrap;html=1;aspect=fixed;" parent="1" vertex="1">
          <mxGeometry x="1270" y="470" width="80" height="80" as="geometry" />
        </mxCell>
        <mxCell id="Fj85bXSeR_-tGHZ6afva-69" value="V - {r}" style="endArrow=classic;html=1;rounded=0;exitX=0.5;exitY=0;exitDx=0;exitDy=0;align=right;labelPosition=left;verticalLabelPosition=top;verticalAlign=bottom;" parent="1" edge="1">
          <mxGeometry x="-0.122" y="-3" width="50" height="50" relative="1" as="geometry">
            <mxPoint x="1310" y="470" as="sourcePoint" />
            <mxPoint x="1350" y="420" as="targetPoint" />
            <mxPoint as="offset" />
          </mxGeometry>
        </mxCell>
        <mxCell id="Fj85bXSeR_-tGHZ6afva-70" value="alfa" style="text;html=1;align=center;verticalAlign=middle;whiteSpace=wrap;rounded=0;" parent="1" vertex="1">
          <mxGeometry x="1330" y="400" width="60" height="30" as="geometry" />
        </mxCell>
        <mxCell id="Fj85bXSeR_-tGHZ6afva-71" value="S17" style="ellipse;whiteSpace=wrap;html=1;aspect=fixed;sketch=1;curveFitting=1;jiggle=2;" parent="1" vertex="1">
          <mxGeometry x="1420" y="470" width="80" height="80" as="geometry" />
        </mxCell>
        <mxCell id="Fj85bXSeR_-tGHZ6afva-74" value="V" style="endArrow=none;startArrow=classic;html=1;rounded=0;endFill=0;" parent="1" edge="1">
          <mxGeometry width="50" height="50" relative="1" as="geometry">
            <mxPoint x="1410" y="600" as="sourcePoint" />
            <mxPoint x="1460" y="550" as="targetPoint" />
          </mxGeometry>
        </mxCell>
        <mxCell id="Fj85bXSeR_-tGHZ6afva-75" value="alfa" style="text;html=1;align=center;verticalAlign=middle;resizable=0;points=[];autosize=1;strokeColor=none;fillColor=none;" parent="1" vertex="1">
          <mxGeometry x="1380" y="588" width="40" height="30" as="geometry" />
        </mxCell>
        <mxCell id="Fj85bXSeR_-tGHZ6afva-76" value="S18" style="ellipse;whiteSpace=wrap;html=1;aspect=fixed;sketch=1;curveFitting=1;jiggle=2;" parent="1" vertex="1">
          <mxGeometry x="520" y="618" width="80" height="80" as="geometry" />
        </mxCell>
        <mxCell id="Fj85bXSeR_-tGHZ6afva-78" value="V" style="endArrow=none;startArrow=classic;html=1;rounded=0;endFill=0;" parent="1" edge="1">
          <mxGeometry width="50" height="50" relative="1" as="geometry">
            <mxPoint x="510" y="748" as="sourcePoint" />
            <mxPoint x="560" y="698" as="targetPoint" />
          </mxGeometry>
        </mxCell>
        <mxCell id="Fj85bXSeR_-tGHZ6afva-79" value="alfa" style="text;html=1;align=center;verticalAlign=middle;resizable=0;points=[];autosize=1;strokeColor=none;fillColor=none;" parent="1" vertex="1">
          <mxGeometry x="480" y="738" width="40" height="30" as="geometry" />
        </mxCell>
        <mxCell id="Fj85bXSeR_-tGHZ6afva-85" value="e" style="edgeStyle=orthogonalEdgeStyle;rounded=0;orthogonalLoop=1;jettySize=auto;html=1;" parent="1" source="Fj85bXSeR_-tGHZ6afva-80" target="Fj85bXSeR_-tGHZ6afva-84" edge="1">
          <mxGeometry relative="1" as="geometry" />
        </mxCell>
        <mxCell id="Fj85bXSeR_-tGHZ6afva-80" value="S19" style="ellipse;whiteSpace=wrap;html=1;aspect=fixed;" parent="1" vertex="1">
          <mxGeometry x="520" y="768" width="80" height="80" as="geometry" />
        </mxCell>
        <mxCell id="Fj85bXSeR_-tGHZ6afva-82" value="V - {e}" style="endArrow=classic;html=1;rounded=0;exitX=0.5;exitY=0;exitDx=0;exitDy=0;align=right;labelPosition=left;verticalLabelPosition=top;verticalAlign=bottom;" parent="1" edge="1">
          <mxGeometry x="-0.122" y="-3" width="50" height="50" relative="1" as="geometry">
            <mxPoint x="560" y="768" as="sourcePoint" />
            <mxPoint x="600" y="718" as="targetPoint" />
            <mxPoint as="offset" />
          </mxGeometry>
        </mxCell>
        <mxCell id="Fj85bXSeR_-tGHZ6afva-83" value="alfa" style="text;html=1;align=center;verticalAlign=middle;whiteSpace=wrap;rounded=0;" parent="1" vertex="1">
          <mxGeometry x="580" y="698" width="60" height="30" as="geometry" />
        </mxCell>
        <mxCell id="Fj85bXSeR_-tGHZ6afva-89" value="a" style="edgeStyle=orthogonalEdgeStyle;rounded=0;orthogonalLoop=1;jettySize=auto;html=1;" parent="1" source="Fj85bXSeR_-tGHZ6afva-84" edge="1">
          <mxGeometry relative="1" as="geometry">
            <mxPoint x="820" y="808" as="targetPoint" />
          </mxGeometry>
        </mxCell>
        <mxCell id="Fj85bXSeR_-tGHZ6afva-84" value="S20" style="ellipse;whiteSpace=wrap;html=1;aspect=fixed;" parent="1" vertex="1">
          <mxGeometry x="670" y="768" width="80" height="80" as="geometry" />
        </mxCell>
        <mxCell id="Fj85bXSeR_-tGHZ6afva-86" value="V - {a}" style="endArrow=classic;html=1;rounded=0;exitX=0.5;exitY=0;exitDx=0;exitDy=0;align=right;labelPosition=left;verticalLabelPosition=top;verticalAlign=bottom;" parent="1" edge="1">
          <mxGeometry x="-0.122" y="-3" width="50" height="50" relative="1" as="geometry">
            <mxPoint x="710" y="768" as="sourcePoint" />
            <mxPoint x="750" y="718" as="targetPoint" />
            <mxPoint as="offset" />
          </mxGeometry>
        </mxCell>
        <mxCell id="Fj85bXSeR_-tGHZ6afva-87" value="alfa" style="text;html=1;align=center;verticalAlign=middle;whiteSpace=wrap;rounded=0;" parent="1" vertex="1">
          <mxGeometry x="730" y="698" width="60" height="30" as="geometry" />
        </mxCell>
        <mxCell id="Fj85bXSeR_-tGHZ6afva-97" value="l" style="edgeStyle=orthogonalEdgeStyle;rounded=0;orthogonalLoop=1;jettySize=auto;html=1;" parent="1" source="Fj85bXSeR_-tGHZ6afva-92" target="Fj85bXSeR_-tGHZ6afva-96" edge="1">
          <mxGeometry relative="1" as="geometry" />
        </mxCell>
        <mxCell id="Fj85bXSeR_-tGHZ6afva-92" value="S21" style="ellipse;whiteSpace=wrap;html=1;aspect=fixed;" parent="1" vertex="1">
          <mxGeometry x="820" y="768" width="80" height="80" as="geometry" />
        </mxCell>
        <mxCell id="Fj85bXSeR_-tGHZ6afva-94" value="V - {l}" style="endArrow=classic;html=1;rounded=0;exitX=0.5;exitY=0;exitDx=0;exitDy=0;align=right;labelPosition=left;verticalLabelPosition=top;verticalAlign=bottom;" parent="1" edge="1">
          <mxGeometry x="-0.122" y="-3" width="50" height="50" relative="1" as="geometry">
            <mxPoint x="860" y="768" as="sourcePoint" />
            <mxPoint x="900" y="718" as="targetPoint" />
            <mxPoint as="offset" />
          </mxGeometry>
        </mxCell>
        <mxCell id="Fj85bXSeR_-tGHZ6afva-95" value="alfa" style="text;html=1;align=center;verticalAlign=middle;whiteSpace=wrap;rounded=0;" parent="1" vertex="1">
          <mxGeometry x="880" y="698" width="60" height="30" as="geometry" />
        </mxCell>
        <mxCell id="Fj85bXSeR_-tGHZ6afva-96" value="S22" style="ellipse;whiteSpace=wrap;html=1;aspect=fixed;sketch=1;curveFitting=1;jiggle=2;" parent="1" vertex="1">
          <mxGeometry x="970" y="768" width="80" height="80" as="geometry" />
        </mxCell>
        <mxCell id="Fj85bXSeR_-tGHZ6afva-98" value="V" style="endArrow=none;startArrow=classic;html=1;rounded=0;endFill=0;" parent="1" edge="1">
          <mxGeometry width="50" height="50" relative="1" as="geometry">
            <mxPoint x="960" y="898" as="sourcePoint" />
            <mxPoint x="1010" y="848" as="targetPoint" />
          </mxGeometry>
        </mxCell>
        <mxCell id="Fj85bXSeR_-tGHZ6afva-99" value="alfa" style="text;html=1;align=center;verticalAlign=middle;resizable=0;points=[];autosize=1;strokeColor=none;fillColor=none;" parent="1" vertex="1">
          <mxGeometry x="930" y="888" width="40" height="30" as="geometry" />
        </mxCell>
        <mxCell id="Fj85bXSeR_-tGHZ6afva-105" value="o" style="edgeStyle=orthogonalEdgeStyle;rounded=0;orthogonalLoop=1;jettySize=auto;html=1;" parent="1" source="Fj85bXSeR_-tGHZ6afva-100" target="Fj85bXSeR_-tGHZ6afva-104" edge="1">
          <mxGeometry relative="1" as="geometry" />
        </mxCell>
        <mxCell id="Fj85bXSeR_-tGHZ6afva-129" value="e" style="edgeStyle=orthogonalEdgeStyle;rounded=0;orthogonalLoop=1;jettySize=auto;html=1;" parent="1" source="Fj85bXSeR_-tGHZ6afva-100" target="Fj85bXSeR_-tGHZ6afva-128" edge="1">
          <mxGeometry relative="1" as="geometry" />
        </mxCell>
        <mxCell id="Fj85bXSeR_-tGHZ6afva-100" value="S23" style="ellipse;whiteSpace=wrap;html=1;aspect=fixed;" parent="1" vertex="1">
          <mxGeometry x="520" y="918" width="80" height="80" as="geometry" />
        </mxCell>
        <mxCell id="Fj85bXSeR_-tGHZ6afva-102" value="V - {o, e}" style="endArrow=classic;html=1;rounded=0;exitX=0.5;exitY=0;exitDx=0;exitDy=0;align=right;labelPosition=left;verticalLabelPosition=top;verticalAlign=bottom;" parent="1" edge="1">
          <mxGeometry x="-0.122" y="-3" width="50" height="50" relative="1" as="geometry">
            <mxPoint x="560" y="918" as="sourcePoint" />
            <mxPoint x="600" y="868" as="targetPoint" />
            <mxPoint as="offset" />
          </mxGeometry>
        </mxCell>
        <mxCell id="Fj85bXSeR_-tGHZ6afva-103" value="alfa" style="text;html=1;align=center;verticalAlign=middle;whiteSpace=wrap;rounded=0;" parent="1" vertex="1">
          <mxGeometry x="580" y="848" width="60" height="30" as="geometry" />
        </mxCell>
        <mxCell id="Fj85bXSeR_-tGHZ6afva-109" value="" style="edgeStyle=orthogonalEdgeStyle;rounded=0;orthogonalLoop=1;jettySize=auto;html=1;" parent="1" source="Fj85bXSeR_-tGHZ6afva-104" target="Fj85bXSeR_-tGHZ6afva-108" edge="1">
          <mxGeometry relative="1" as="geometry" />
        </mxCell>
        <mxCell id="Fj85bXSeR_-tGHZ6afva-104" value="S24" style="ellipse;whiteSpace=wrap;html=1;aspect=fixed;" parent="1" vertex="1">
          <mxGeometry x="670" y="918" width="80" height="80" as="geometry" />
        </mxCell>
        <mxCell id="Fj85bXSeR_-tGHZ6afva-106" value="V - {o}" style="endArrow=classic;html=1;rounded=0;exitX=0.5;exitY=0;exitDx=0;exitDy=0;align=right;labelPosition=left;verticalLabelPosition=top;verticalAlign=bottom;" parent="1" edge="1">
          <mxGeometry x="-0.122" y="-3" width="50" height="50" relative="1" as="geometry">
            <mxPoint x="710" y="918" as="sourcePoint" />
            <mxPoint x="750" y="868" as="targetPoint" />
            <mxPoint as="offset" />
          </mxGeometry>
        </mxCell>
        <mxCell id="Fj85bXSeR_-tGHZ6afva-107" value="alfa" style="text;html=1;align=center;verticalAlign=middle;whiteSpace=wrap;rounded=0;" parent="1" vertex="1">
          <mxGeometry x="730" y="848" width="60" height="30" as="geometry" />
        </mxCell>
        <mxCell id="Fj85bXSeR_-tGHZ6afva-113" value="l" style="edgeStyle=orthogonalEdgeStyle;rounded=0;orthogonalLoop=1;jettySize=auto;html=1;" parent="1" source="Fj85bXSeR_-tGHZ6afva-108" target="Fj85bXSeR_-tGHZ6afva-112" edge="1">
          <mxGeometry relative="1" as="geometry" />
        </mxCell>
        <mxCell id="Fj85bXSeR_-tGHZ6afva-108" value="S25" style="ellipse;whiteSpace=wrap;html=1;aspect=fixed;" parent="1" vertex="1">
          <mxGeometry x="820" y="918" width="80" height="80" as="geometry" />
        </mxCell>
        <mxCell id="Fj85bXSeR_-tGHZ6afva-110" value="V - {l}" style="endArrow=classic;html=1;rounded=0;exitX=0.5;exitY=0;exitDx=0;exitDy=0;align=right;labelPosition=left;verticalLabelPosition=top;verticalAlign=bottom;" parent="1" edge="1">
          <mxGeometry x="-0.122" y="-3" width="50" height="50" relative="1" as="geometry">
            <mxPoint x="860" y="918" as="sourcePoint" />
            <mxPoint x="900" y="868" as="targetPoint" />
            <mxPoint as="offset" />
          </mxGeometry>
        </mxCell>
        <mxCell id="Fj85bXSeR_-tGHZ6afva-111" value="alfa" style="text;html=1;align=center;verticalAlign=middle;whiteSpace=wrap;rounded=0;" parent="1" vertex="1">
          <mxGeometry x="880" y="848" width="60" height="30" as="geometry" />
        </mxCell>
        <mxCell id="Fj85bXSeR_-tGHZ6afva-117" value="e" style="edgeStyle=orthogonalEdgeStyle;rounded=0;orthogonalLoop=1;jettySize=auto;html=1;" parent="1" source="Fj85bXSeR_-tGHZ6afva-112" target="Fj85bXSeR_-tGHZ6afva-116" edge="1">
          <mxGeometry relative="1" as="geometry" />
        </mxCell>
        <mxCell id="Fj85bXSeR_-tGHZ6afva-112" value="S26" style="ellipse;whiteSpace=wrap;html=1;aspect=fixed;" parent="1" vertex="1">
          <mxGeometry x="970" y="918" width="80" height="80" as="geometry" />
        </mxCell>
        <mxCell id="Fj85bXSeR_-tGHZ6afva-114" value="V - {e}" style="endArrow=classic;html=1;rounded=0;exitX=0.5;exitY=0;exitDx=0;exitDy=0;align=right;labelPosition=left;verticalLabelPosition=top;verticalAlign=bottom;" parent="1" edge="1">
          <mxGeometry x="-0.122" y="-3" width="50" height="50" relative="1" as="geometry">
            <mxPoint x="1010" y="918" as="sourcePoint" />
            <mxPoint x="1050" y="868" as="targetPoint" />
            <mxPoint as="offset" />
          </mxGeometry>
        </mxCell>
        <mxCell id="Fj85bXSeR_-tGHZ6afva-115" value="alfa" style="text;html=1;align=center;verticalAlign=middle;whiteSpace=wrap;rounded=0;" parent="1" vertex="1">
          <mxGeometry x="1030" y="848" width="60" height="30" as="geometry" />
        </mxCell>
        <mxCell id="Fj85bXSeR_-tGHZ6afva-121" value="a" style="edgeStyle=orthogonalEdgeStyle;rounded=0;orthogonalLoop=1;jettySize=auto;html=1;" parent="1" source="Fj85bXSeR_-tGHZ6afva-116" target="Fj85bXSeR_-tGHZ6afva-120" edge="1">
          <mxGeometry relative="1" as="geometry" />
        </mxCell>
        <mxCell id="Fj85bXSeR_-tGHZ6afva-116" value="S27" style="ellipse;whiteSpace=wrap;html=1;aspect=fixed;" parent="1" vertex="1">
          <mxGeometry x="1120" y="918" width="80" height="80" as="geometry" />
        </mxCell>
        <mxCell id="Fj85bXSeR_-tGHZ6afva-118" value="V - {a}" style="endArrow=classic;html=1;rounded=0;exitX=0.5;exitY=0;exitDx=0;exitDy=0;align=right;labelPosition=left;verticalLabelPosition=top;verticalAlign=bottom;" parent="1" edge="1">
          <mxGeometry x="-0.122" y="-3" width="50" height="50" relative="1" as="geometry">
            <mxPoint x="1161" y="918" as="sourcePoint" />
            <mxPoint x="1201" y="868" as="targetPoint" />
            <mxPoint as="offset" />
          </mxGeometry>
        </mxCell>
        <mxCell id="Fj85bXSeR_-tGHZ6afva-119" value="alfa" style="text;html=1;align=center;verticalAlign=middle;whiteSpace=wrap;rounded=0;" parent="1" vertex="1">
          <mxGeometry x="1181" y="848" width="60" height="30" as="geometry" />
        </mxCell>
        <mxCell id="Fj85bXSeR_-tGHZ6afva-125" value="n" style="edgeStyle=orthogonalEdgeStyle;rounded=0;orthogonalLoop=1;jettySize=auto;html=1;" parent="1" source="Fj85bXSeR_-tGHZ6afva-120" target="Fj85bXSeR_-tGHZ6afva-124" edge="1">
          <mxGeometry relative="1" as="geometry" />
        </mxCell>
        <mxCell id="Fj85bXSeR_-tGHZ6afva-120" value="S28" style="ellipse;whiteSpace=wrap;html=1;aspect=fixed;" parent="1" vertex="1">
          <mxGeometry x="1280" y="918" width="80" height="80" as="geometry" />
        </mxCell>
        <mxCell id="Fj85bXSeR_-tGHZ6afva-122" value="V - {n}" style="endArrow=classic;html=1;rounded=0;exitX=0.5;exitY=0;exitDx=0;exitDy=0;align=right;labelPosition=left;verticalLabelPosition=top;verticalAlign=bottom;" parent="1" edge="1">
          <mxGeometry x="-0.122" y="-3" width="50" height="50" relative="1" as="geometry">
            <mxPoint x="1320" y="918" as="sourcePoint" />
            <mxPoint x="1360" y="868" as="targetPoint" />
            <mxPoint as="offset" />
          </mxGeometry>
        </mxCell>
        <mxCell id="Fj85bXSeR_-tGHZ6afva-123" value="alfa" style="text;html=1;align=center;verticalAlign=middle;whiteSpace=wrap;rounded=0;" parent="1" vertex="1">
          <mxGeometry x="1340" y="848" width="60" height="30" as="geometry" />
        </mxCell>
        <mxCell id="Fj85bXSeR_-tGHZ6afva-124" value="S29" style="ellipse;whiteSpace=wrap;html=1;aspect=fixed;sketch=1;curveFitting=1;jiggle=2;" parent="1" vertex="1">
          <mxGeometry x="1440" y="918" width="80" height="80" as="geometry" />
        </mxCell>
        <mxCell id="Fj85bXSeR_-tGHZ6afva-126" value="V" style="endArrow=none;startArrow=classic;html=1;rounded=0;endFill=0;" parent="1" edge="1">
          <mxGeometry width="50" height="50" relative="1" as="geometry">
            <mxPoint x="1430" y="1048" as="sourcePoint" />
            <mxPoint x="1480" y="998" as="targetPoint" />
          </mxGeometry>
        </mxCell>
        <mxCell id="Fj85bXSeR_-tGHZ6afva-127" value="alfa" style="text;html=1;align=center;verticalAlign=middle;resizable=0;points=[];autosize=1;strokeColor=none;fillColor=none;" parent="1" vertex="1">
          <mxGeometry x="1400" y="1038" width="40" height="30" as="geometry" />
        </mxCell>
        <mxCell id="Fj85bXSeR_-tGHZ6afva-133" value="" style="edgeStyle=orthogonalEdgeStyle;rounded=0;orthogonalLoop=1;jettySize=auto;html=1;" parent="1" source="Fj85bXSeR_-tGHZ6afva-128" target="Fj85bXSeR_-tGHZ6afva-132" edge="1">
          <mxGeometry relative="1" as="geometry" />
        </mxCell>
        <mxCell id="Fj85bXSeR_-tGHZ6afva-128" value="S30" style="ellipse;whiteSpace=wrap;html=1;aspect=fixed;" parent="1" vertex="1">
          <mxGeometry x="520" y="1068" width="80" height="80" as="geometry" />
        </mxCell>
        <mxCell id="Fj85bXSeR_-tGHZ6afva-130" value="V - {g}" style="endArrow=classic;html=1;rounded=0;exitX=0.5;exitY=0;exitDx=0;exitDy=0;align=left;labelPosition=right;verticalLabelPosition=top;verticalAlign=bottom;" parent="1" edge="1">
          <mxGeometry x="-0.122" y="-3" width="50" height="50" relative="1" as="geometry">
            <mxPoint x="560" y="1068" as="sourcePoint" />
            <mxPoint x="600" y="1018" as="targetPoint" />
            <mxPoint as="offset" />
          </mxGeometry>
        </mxCell>
        <mxCell id="Fj85bXSeR_-tGHZ6afva-131" value="alfa" style="text;html=1;align=center;verticalAlign=middle;whiteSpace=wrap;rounded=0;" parent="1" vertex="1">
          <mxGeometry x="580" y="998" width="60" height="30" as="geometry" />
        </mxCell>
        <mxCell id="Fj85bXSeR_-tGHZ6afva-139" value="i" style="edgeStyle=orthogonalEdgeStyle;rounded=0;orthogonalLoop=1;jettySize=auto;html=1;" parent="1" source="Fj85bXSeR_-tGHZ6afva-132" target="Fj85bXSeR_-tGHZ6afva-136" edge="1">
          <mxGeometry relative="1" as="geometry" />
        </mxCell>
        <mxCell id="Fj85bXSeR_-tGHZ6afva-132" value="S31" style="ellipse;whiteSpace=wrap;html=1;aspect=fixed;" parent="1" vertex="1">
          <mxGeometry x="670" y="1068" width="80" height="80" as="geometry" />
        </mxCell>
        <mxCell id="Fj85bXSeR_-tGHZ6afva-134" value="V - {i}" style="endArrow=classic;html=1;rounded=0;exitX=0.5;exitY=0;exitDx=0;exitDy=0;align=right;labelPosition=left;verticalLabelPosition=top;verticalAlign=bottom;" parent="1" edge="1">
          <mxGeometry x="-0.122" y="-3" width="50" height="50" relative="1" as="geometry">
            <mxPoint x="710" y="1068" as="sourcePoint" />
            <mxPoint x="750" y="1018" as="targetPoint" />
            <mxPoint as="offset" />
          </mxGeometry>
        </mxCell>
        <mxCell id="Fj85bXSeR_-tGHZ6afva-135" value="alfa" style="text;html=1;align=center;verticalAlign=middle;whiteSpace=wrap;rounded=0;" parent="1" vertex="1">
          <mxGeometry x="730" y="998" width="60" height="30" as="geometry" />
        </mxCell>
        <mxCell id="Fj85bXSeR_-tGHZ6afva-141" value="n" style="edgeStyle=orthogonalEdgeStyle;rounded=0;orthogonalLoop=1;jettySize=auto;html=1;" parent="1" source="Fj85bXSeR_-tGHZ6afva-136" target="Fj85bXSeR_-tGHZ6afva-140" edge="1">
          <mxGeometry relative="1" as="geometry" />
        </mxCell>
        <mxCell id="Fj85bXSeR_-tGHZ6afva-136" value="S32" style="ellipse;whiteSpace=wrap;html=1;aspect=fixed;" parent="1" vertex="1">
          <mxGeometry x="820" y="1068" width="80" height="80" as="geometry" />
        </mxCell>
        <mxCell id="Fj85bXSeR_-tGHZ6afva-137" value="V - {n}" style="endArrow=classic;html=1;rounded=0;exitX=0.5;exitY=0;exitDx=0;exitDy=0;align=right;labelPosition=left;verticalLabelPosition=top;verticalAlign=bottom;" parent="1" edge="1">
          <mxGeometry x="-0.122" y="-3" width="50" height="50" relative="1" as="geometry">
            <mxPoint x="860" y="1068" as="sourcePoint" />
            <mxPoint x="900" y="1018" as="targetPoint" />
            <mxPoint as="offset" />
          </mxGeometry>
        </mxCell>
        <mxCell id="Fj85bXSeR_-tGHZ6afva-138" value="alfa" style="text;html=1;align=center;verticalAlign=middle;whiteSpace=wrap;rounded=0;" parent="1" vertex="1">
          <mxGeometry x="880" y="998" width="60" height="30" as="geometry" />
        </mxCell>
        <mxCell id="Fj85bXSeR_-tGHZ6afva-140" value="S33" style="ellipse;whiteSpace=wrap;html=1;aspect=fixed;sketch=1;curveFitting=1;jiggle=2;" parent="1" vertex="1">
          <mxGeometry x="970" y="1068" width="80" height="80" as="geometry" />
        </mxCell>
        <mxCell id="Fj85bXSeR_-tGHZ6afva-142" value="V" style="endArrow=none;startArrow=classic;html=1;rounded=0;endFill=0;" parent="1" edge="1">
          <mxGeometry width="50" height="50" relative="1" as="geometry">
            <mxPoint x="960" y="1198" as="sourcePoint" />
            <mxPoint x="1010" y="1148" as="targetPoint" />
          </mxGeometry>
        </mxCell>
        <mxCell id="Fj85bXSeR_-tGHZ6afva-143" value="alfa" style="text;html=1;align=center;verticalAlign=middle;resizable=0;points=[];autosize=1;strokeColor=none;fillColor=none;" parent="1" vertex="1">
          <mxGeometry x="930" y="1188" width="40" height="30" as="geometry" />
        </mxCell>
        <mxCell id="Fj85bXSeR_-tGHZ6afva-150" value="n" style="edgeStyle=orthogonalEdgeStyle;rounded=0;orthogonalLoop=1;jettySize=auto;html=1;" parent="1" source="Fj85bXSeR_-tGHZ6afva-144" target="Fj85bXSeR_-tGHZ6afva-149" edge="1">
          <mxGeometry relative="1" as="geometry" />
        </mxCell>
        <mxCell id="Fj85bXSeR_-tGHZ6afva-159" value="l" style="edgeStyle=orthogonalEdgeStyle;rounded=0;orthogonalLoop=1;jettySize=auto;html=1;" parent="1" source="Fj85bXSeR_-tGHZ6afva-144" target="Fj85bXSeR_-tGHZ6afva-158" edge="1">
          <mxGeometry relative="1" as="geometry" />
        </mxCell>
        <mxCell id="Fj85bXSeR_-tGHZ6afva-144" value="S34" style="ellipse;whiteSpace=wrap;html=1;aspect=fixed;" parent="1" vertex="1">
          <mxGeometry x="520" y="1218" width="80" height="80" as="geometry" />
        </mxCell>
        <mxCell id="Fj85bXSeR_-tGHZ6afva-146" value="V - {n, l}" style="endArrow=classic;html=1;rounded=0;exitX=0.5;exitY=0;exitDx=0;exitDy=0;align=left;labelPosition=right;verticalLabelPosition=top;verticalAlign=bottom;" parent="1" edge="1">
          <mxGeometry x="-0.122" y="-3" width="50" height="50" relative="1" as="geometry">
            <mxPoint x="560" y="1218" as="sourcePoint" />
            <mxPoint x="600" y="1168" as="targetPoint" />
            <mxPoint as="offset" />
          </mxGeometry>
        </mxCell>
        <mxCell id="Fj85bXSeR_-tGHZ6afva-147" value="alfa" style="text;html=1;align=center;verticalAlign=middle;whiteSpace=wrap;rounded=0;" parent="1" vertex="1">
          <mxGeometry x="580" y="1148" width="60" height="30" as="geometry" />
        </mxCell>
        <mxCell id="Fj85bXSeR_-tGHZ6afva-155" value="d" style="edgeStyle=orthogonalEdgeStyle;rounded=0;orthogonalLoop=1;jettySize=auto;html=1;" parent="1" source="Fj85bXSeR_-tGHZ6afva-149" target="Fj85bXSeR_-tGHZ6afva-154" edge="1">
          <mxGeometry relative="1" as="geometry" />
        </mxCell>
        <mxCell id="Fj85bXSeR_-tGHZ6afva-149" value="S35" style="ellipse;whiteSpace=wrap;html=1;aspect=fixed;" parent="1" vertex="1">
          <mxGeometry x="670" y="1218" width="80" height="80" as="geometry" />
        </mxCell>
        <mxCell id="Fj85bXSeR_-tGHZ6afva-151" value="V - {d}" style="endArrow=classic;html=1;rounded=0;exitX=0.5;exitY=0;exitDx=0;exitDy=0;align=left;labelPosition=right;verticalLabelPosition=top;verticalAlign=bottom;" parent="1" edge="1">
          <mxGeometry x="-0.122" y="-3" width="50" height="50" relative="1" as="geometry">
            <mxPoint x="710" y="1218" as="sourcePoint" />
            <mxPoint x="750" y="1168" as="targetPoint" />
            <mxPoint as="offset" />
          </mxGeometry>
        </mxCell>
        <mxCell id="Fj85bXSeR_-tGHZ6afva-152" value="alfa" style="text;html=1;align=center;verticalAlign=middle;whiteSpace=wrap;rounded=0;" parent="1" vertex="1">
          <mxGeometry x="730" y="1148" width="60" height="30" as="geometry" />
        </mxCell>
        <mxCell id="Fj85bXSeR_-tGHZ6afva-154" value="S36" style="ellipse;whiteSpace=wrap;html=1;aspect=fixed;sketch=1;curveFitting=1;jiggle=2;" parent="1" vertex="1">
          <mxGeometry x="820" y="1218" width="80" height="80" as="geometry" />
        </mxCell>
        <mxCell id="Fj85bXSeR_-tGHZ6afva-156" value="V" style="endArrow=none;startArrow=classic;html=1;rounded=0;endFill=0;" parent="1" edge="1">
          <mxGeometry width="50" height="50" relative="1" as="geometry">
            <mxPoint x="810" y="1348" as="sourcePoint" />
            <mxPoint x="860" y="1298" as="targetPoint" />
          </mxGeometry>
        </mxCell>
        <mxCell id="Fj85bXSeR_-tGHZ6afva-157" value="alfa" style="text;html=1;align=center;verticalAlign=middle;resizable=0;points=[];autosize=1;strokeColor=none;fillColor=none;" parent="1" vertex="1">
          <mxGeometry x="780" y="1338" width="40" height="30" as="geometry" />
        </mxCell>
        <mxCell id="Fj85bXSeR_-tGHZ6afva-164" value="s" style="edgeStyle=orthogonalEdgeStyle;rounded=0;orthogonalLoop=1;jettySize=auto;html=1;" parent="1" source="Fj85bXSeR_-tGHZ6afva-158" target="Fj85bXSeR_-tGHZ6afva-163" edge="1">
          <mxGeometry relative="1" as="geometry" />
        </mxCell>
        <mxCell id="Fj85bXSeR_-tGHZ6afva-158" value="S37" style="ellipse;whiteSpace=wrap;html=1;aspect=fixed;" parent="1" vertex="1">
          <mxGeometry x="520" y="1368" width="80" height="80" as="geometry" />
        </mxCell>
        <mxCell id="Fj85bXSeR_-tGHZ6afva-160" value="V - {s}" style="endArrow=classic;html=1;rounded=0;exitX=0.5;exitY=0;exitDx=0;exitDy=0;align=left;labelPosition=right;verticalLabelPosition=top;verticalAlign=bottom;" parent="1" edge="1">
          <mxGeometry x="-0.122" y="-3" width="50" height="50" relative="1" as="geometry">
            <mxPoint x="560" y="1368" as="sourcePoint" />
            <mxPoint x="600" y="1318" as="targetPoint" />
            <mxPoint as="offset" />
          </mxGeometry>
        </mxCell>
        <mxCell id="Fj85bXSeR_-tGHZ6afva-161" value="alfa" style="text;html=1;align=center;verticalAlign=middle;whiteSpace=wrap;rounded=0;" parent="1" vertex="1">
          <mxGeometry x="580" y="1298" width="60" height="30" as="geometry" />
        </mxCell>
        <mxCell id="Fj85bXSeR_-tGHZ6afva-168" value="e" style="edgeStyle=orthogonalEdgeStyle;rounded=0;orthogonalLoop=1;jettySize=auto;html=1;" parent="1" source="Fj85bXSeR_-tGHZ6afva-163" target="Fj85bXSeR_-tGHZ6afva-167" edge="1">
          <mxGeometry relative="1" as="geometry" />
        </mxCell>
        <mxCell id="Fj85bXSeR_-tGHZ6afva-163" value="S38" style="ellipse;whiteSpace=wrap;html=1;aspect=fixed;" parent="1" vertex="1">
          <mxGeometry x="670" y="1368" width="80" height="80" as="geometry" />
        </mxCell>
        <mxCell id="Fj85bXSeR_-tGHZ6afva-165" value="V - {e}" style="endArrow=classic;html=1;rounded=0;exitX=0.5;exitY=0;exitDx=0;exitDy=0;align=left;labelPosition=right;verticalLabelPosition=top;verticalAlign=bottom;" parent="1" edge="1">
          <mxGeometry x="-0.122" y="-3" width="50" height="50" relative="1" as="geometry">
            <mxPoint x="710" y="1368" as="sourcePoint" />
            <mxPoint x="750" y="1318" as="targetPoint" />
            <mxPoint as="offset" />
          </mxGeometry>
        </mxCell>
        <mxCell id="Fj85bXSeR_-tGHZ6afva-166" value="alfa" style="text;html=1;align=center;verticalAlign=middle;whiteSpace=wrap;rounded=0;" parent="1" vertex="1">
          <mxGeometry x="730" y="1298" width="60" height="30" as="geometry" />
        </mxCell>
        <mxCell id="Fj85bXSeR_-tGHZ6afva-167" value="S39" style="ellipse;whiteSpace=wrap;html=1;aspect=fixed;sketch=1;curveFitting=1;jiggle=2;" parent="1" vertex="1">
          <mxGeometry x="820" y="1368" width="80" height="80" as="geometry" />
        </mxCell>
        <mxCell id="Fj85bXSeR_-tGHZ6afva-169" value="V" style="endArrow=none;startArrow=classic;html=1;rounded=0;endFill=0;" parent="1" edge="1">
          <mxGeometry width="50" height="50" relative="1" as="geometry">
            <mxPoint x="810" y="1498" as="sourcePoint" />
            <mxPoint x="860" y="1448" as="targetPoint" />
          </mxGeometry>
        </mxCell>
        <mxCell id="Fj85bXSeR_-tGHZ6afva-170" value="alfa" style="text;html=1;align=center;verticalAlign=middle;resizable=0;points=[];autosize=1;strokeColor=none;fillColor=none;" parent="1" vertex="1">
          <mxGeometry x="780" y="1488" width="40" height="30" as="geometry" />
        </mxCell>
        <mxCell id="Fj85bXSeR_-tGHZ6afva-176" value="h&lt;span style=&quot;color: rgba(0, 0, 0, 0); font-family: monospace; font-size: 0px; text-align: start; background-color: rgb(251, 251, 251);&quot;&gt;%3CmxGraphModel%3E%3Croot%3E%3CmxCell%20id%3D%220%22%2F%3E%3CmxCell%20id%3D%221%22%20parent%3D%220%22%2F%3E%3CmxCell%20id%3D%222%22%20value%3D%22V%20-%20%7Bs%7D%22%20style%3D%22endArrow%3Dclassic%3Bhtml%3D1%3Brounded%3D0%3BexitX%3D0.5%3BexitY%3D0%3BexitDx%3D0%3BexitDy%3D0%3Balign%3Dleft%3BlabelPosition%3Dright%3BverticalLabelPosition%3Dtop%3BverticalAlign%3Dbottom%3B%22%20edge%3D%221%22%20parent%3D%221%22%3E%3CmxGeometry%20x%3D%22-0.122%22%20y%3D%22-3%22%20width%3D%2250%22%20height%3D%2250%22%20relative%3D%221%22%20as%3D%22geometry%22%3E%3CmxPoint%20x%3D%22560%22%20y%3D%221368%22%20as%3D%22sourcePoint%22%2F%3E%3CmxPoint%20x%3D%22600%22%20y%3D%221318%22%20as%3D%22targetPoint%22%2F%3E%3CmxPoint%20as%3D%22offset%22%2F%3E%3C%2FmxGeometry%3E%3C%2FmxCell%3E%3CmxCell%20id%3D%223%22%20value%3D%22alfa%22%20style%3D%22text%3Bhtml%3D1%3Balign%3Dcenter%3BverticalAlign%3Dmiddle%3BwhiteSpace%3Dwrap%3Brounded%3D0%3B%22%20vertex%3D%221%22%20parent%3D%221%22%3E%3CmxGeometry%20x%3D%22580%22%20y%3D%221298%22%20width%3D%2260%22%20height%3D%2230%22%20as%3D%22geometry%22%2F%3E%3C%2FmxCell%3E%3C%2Froot%3E%3C%2FmxGraphModel%3E&lt;/span&gt;" style="edgeStyle=orthogonalEdgeStyle;rounded=0;orthogonalLoop=1;jettySize=auto;html=1;" parent="1" source="Fj85bXSeR_-tGHZ6afva-171" target="Fj85bXSeR_-tGHZ6afva-175" edge="1">
          <mxGeometry relative="1" as="geometry" />
        </mxCell>
        <mxCell id="Fj85bXSeR_-tGHZ6afva-171" value="S40" style="ellipse;whiteSpace=wrap;html=1;aspect=fixed;" parent="1" vertex="1">
          <mxGeometry x="520" y="1518" width="80" height="80" as="geometry" />
        </mxCell>
        <mxCell id="Fj85bXSeR_-tGHZ6afva-173" value="V - {h}" style="endArrow=classic;html=1;rounded=0;exitX=0.5;exitY=0;exitDx=0;exitDy=0;align=left;labelPosition=right;verticalLabelPosition=top;verticalAlign=bottom;" parent="1" edge="1">
          <mxGeometry x="-0.122" y="-3" width="50" height="50" relative="1" as="geometry">
            <mxPoint x="560" y="1518" as="sourcePoint" />
            <mxPoint x="600" y="1468" as="targetPoint" />
            <mxPoint as="offset" />
          </mxGeometry>
        </mxCell>
        <mxCell id="Fj85bXSeR_-tGHZ6afva-174" value="alfa" style="text;html=1;align=center;verticalAlign=middle;whiteSpace=wrap;rounded=0;" parent="1" vertex="1">
          <mxGeometry x="580" y="1448" width="60" height="30" as="geometry" />
        </mxCell>
        <mxCell id="Fj85bXSeR_-tGHZ6afva-180" value="e" style="edgeStyle=orthogonalEdgeStyle;rounded=0;orthogonalLoop=1;jettySize=auto;html=1;" parent="1" source="Fj85bXSeR_-tGHZ6afva-175" target="Fj85bXSeR_-tGHZ6afva-179" edge="1">
          <mxGeometry relative="1" as="geometry" />
        </mxCell>
        <mxCell id="Fj85bXSeR_-tGHZ6afva-175" value="S41" style="ellipse;whiteSpace=wrap;html=1;aspect=fixed;" parent="1" vertex="1">
          <mxGeometry x="670" y="1518" width="80" height="80" as="geometry" />
        </mxCell>
        <mxCell id="Fj85bXSeR_-tGHZ6afva-177" value="V - {e}" style="endArrow=classic;html=1;rounded=0;exitX=0.5;exitY=0;exitDx=0;exitDy=0;align=left;labelPosition=right;verticalLabelPosition=top;verticalAlign=bottom;" parent="1" edge="1">
          <mxGeometry x="-0.122" y="-3" width="50" height="50" relative="1" as="geometry">
            <mxPoint x="710" y="1518" as="sourcePoint" />
            <mxPoint x="750" y="1468" as="targetPoint" />
            <mxPoint as="offset" />
          </mxGeometry>
        </mxCell>
        <mxCell id="Fj85bXSeR_-tGHZ6afva-178" value="alfa" style="text;html=1;align=center;verticalAlign=middle;whiteSpace=wrap;rounded=0;" parent="1" vertex="1">
          <mxGeometry x="730" y="1448" width="60" height="30" as="geometry" />
        </mxCell>
        <mxCell id="Fj85bXSeR_-tGHZ6afva-184" value="n" style="edgeStyle=orthogonalEdgeStyle;rounded=0;orthogonalLoop=1;jettySize=auto;html=1;" parent="1" source="Fj85bXSeR_-tGHZ6afva-179" target="Fj85bXSeR_-tGHZ6afva-183" edge="1">
          <mxGeometry relative="1" as="geometry" />
        </mxCell>
        <mxCell id="Fj85bXSeR_-tGHZ6afva-179" value="S42" style="ellipse;whiteSpace=wrap;html=1;aspect=fixed;" parent="1" vertex="1">
          <mxGeometry x="820" y="1518" width="80" height="80" as="geometry" />
        </mxCell>
        <mxCell id="Fj85bXSeR_-tGHZ6afva-181" value="V - {n}" style="endArrow=classic;html=1;rounded=0;exitX=0.5;exitY=0;exitDx=0;exitDy=0;align=left;labelPosition=right;verticalLabelPosition=top;verticalAlign=bottom;" parent="1" edge="1">
          <mxGeometry x="-0.122" y="-3" width="50" height="50" relative="1" as="geometry">
            <mxPoint x="860" y="1518" as="sourcePoint" />
            <mxPoint x="900" y="1468" as="targetPoint" />
            <mxPoint as="offset" />
          </mxGeometry>
        </mxCell>
        <mxCell id="Fj85bXSeR_-tGHZ6afva-182" value="alfa" style="text;html=1;align=center;verticalAlign=middle;whiteSpace=wrap;rounded=0;" parent="1" vertex="1">
          <mxGeometry x="880" y="1448" width="60" height="30" as="geometry" />
        </mxCell>
        <mxCell id="Fj85bXSeR_-tGHZ6afva-183" value="S43" style="ellipse;whiteSpace=wrap;html=1;aspect=fixed;sketch=1;curveFitting=1;jiggle=2;" parent="1" vertex="1">
          <mxGeometry x="970" y="1518" width="80" height="80" as="geometry" />
        </mxCell>
        <mxCell id="Fj85bXSeR_-tGHZ6afva-185" value="V" style="endArrow=none;startArrow=classic;html=1;rounded=0;endFill=0;" parent="1" edge="1">
          <mxGeometry width="50" height="50" relative="1" as="geometry">
            <mxPoint x="960" y="1648" as="sourcePoint" />
            <mxPoint x="1010" y="1598" as="targetPoint" />
          </mxGeometry>
        </mxCell>
        <mxCell id="Fj85bXSeR_-tGHZ6afva-186" value="alfa" style="text;html=1;align=center;verticalAlign=middle;resizable=0;points=[];autosize=1;strokeColor=none;fillColor=none;" parent="1" vertex="1">
          <mxGeometry x="930" y="1638" width="40" height="30" as="geometry" />
        </mxCell>
        <mxCell id="Fj85bXSeR_-tGHZ6afva-194" value="h" style="edgeStyle=orthogonalEdgeStyle;rounded=0;orthogonalLoop=1;jettySize=auto;html=1;" parent="1" source="Fj85bXSeR_-tGHZ6afva-188" target="Fj85bXSeR_-tGHZ6afva-193" edge="1">
          <mxGeometry relative="1" as="geometry" />
        </mxCell>
        <mxCell id="Fj85bXSeR_-tGHZ6afva-188" value="S44" style="ellipse;whiteSpace=wrap;html=1;aspect=fixed;" parent="1" vertex="1">
          <mxGeometry x="520" y="1668" width="80" height="80" as="geometry" />
        </mxCell>
        <mxCell id="Fj85bXSeR_-tGHZ6afva-190" value="V - {h}" style="endArrow=classic;html=1;rounded=0;exitX=0.5;exitY=0;exitDx=0;exitDy=0;align=left;labelPosition=right;verticalLabelPosition=top;verticalAlign=bottom;" parent="1" edge="1">
          <mxGeometry x="-0.122" y="-3" width="50" height="50" relative="1" as="geometry">
            <mxPoint x="560" y="1668" as="sourcePoint" />
            <mxPoint x="600" y="1618" as="targetPoint" />
            <mxPoint as="offset" />
          </mxGeometry>
        </mxCell>
        <mxCell id="Fj85bXSeR_-tGHZ6afva-191" value="alfa" style="text;html=1;align=center;verticalAlign=middle;whiteSpace=wrap;rounded=0;" parent="1" vertex="1">
          <mxGeometry x="580" y="1598" width="60" height="30" as="geometry" />
        </mxCell>
        <mxCell id="Fj85bXSeR_-tGHZ6afva-200" value="i" style="edgeStyle=orthogonalEdgeStyle;rounded=0;orthogonalLoop=1;jettySize=auto;html=1;" parent="1" source="Fj85bXSeR_-tGHZ6afva-193" target="Fj85bXSeR_-tGHZ6afva-197" edge="1">
          <mxGeometry relative="1" as="geometry" />
        </mxCell>
        <mxCell id="Fj85bXSeR_-tGHZ6afva-193" value="S45" style="ellipse;whiteSpace=wrap;html=1;aspect=fixed;" parent="1" vertex="1">
          <mxGeometry x="680" y="1668" width="80" height="80" as="geometry" />
        </mxCell>
        <mxCell id="Fj85bXSeR_-tGHZ6afva-195" value="V - {i}" style="endArrow=classic;html=1;rounded=0;exitX=0.5;exitY=0;exitDx=0;exitDy=0;align=left;labelPosition=right;verticalLabelPosition=top;verticalAlign=bottom;" parent="1" edge="1">
          <mxGeometry x="-0.122" y="-3" width="50" height="50" relative="1" as="geometry">
            <mxPoint x="720" y="1668" as="sourcePoint" />
            <mxPoint x="760" y="1618" as="targetPoint" />
            <mxPoint as="offset" />
          </mxGeometry>
        </mxCell>
        <mxCell id="Fj85bXSeR_-tGHZ6afva-196" value="alfa" style="text;html=1;align=center;verticalAlign=middle;whiteSpace=wrap;rounded=0;" parent="1" vertex="1">
          <mxGeometry x="740" y="1598" width="60" height="30" as="geometry" />
        </mxCell>
        <mxCell id="Fj85bXSeR_-tGHZ6afva-203" value="l" style="edgeStyle=orthogonalEdgeStyle;rounded=0;orthogonalLoop=1;jettySize=auto;html=1;" parent="1" source="Fj85bXSeR_-tGHZ6afva-197" target="Fj85bXSeR_-tGHZ6afva-202" edge="1">
          <mxGeometry relative="1" as="geometry" />
        </mxCell>
        <mxCell id="Fj85bXSeR_-tGHZ6afva-197" value="S46" style="ellipse;whiteSpace=wrap;html=1;aspect=fixed;" parent="1" vertex="1">
          <mxGeometry x="820" y="1668" width="80" height="80" as="geometry" />
        </mxCell>
        <mxCell id="Fj85bXSeR_-tGHZ6afva-198" value="V - {l}" style="endArrow=classic;html=1;rounded=0;exitX=0.5;exitY=0;exitDx=0;exitDy=0;align=left;labelPosition=right;verticalLabelPosition=top;verticalAlign=bottom;" parent="1" edge="1">
          <mxGeometry x="-0.122" y="-3" width="50" height="50" relative="1" as="geometry">
            <mxPoint x="860" y="1668" as="sourcePoint" />
            <mxPoint x="900" y="1618" as="targetPoint" />
            <mxPoint as="offset" />
          </mxGeometry>
        </mxCell>
        <mxCell id="Fj85bXSeR_-tGHZ6afva-199" value="alfa" style="text;html=1;align=center;verticalAlign=middle;whiteSpace=wrap;rounded=0;" parent="1" vertex="1">
          <mxGeometry x="880" y="1598" width="60" height="30" as="geometry" />
        </mxCell>
        <mxCell id="Fj85bXSeR_-tGHZ6afva-207" value="e" style="edgeStyle=orthogonalEdgeStyle;rounded=0;orthogonalLoop=1;jettySize=auto;html=1;" parent="1" source="Fj85bXSeR_-tGHZ6afva-202" target="Fj85bXSeR_-tGHZ6afva-206" edge="1">
          <mxGeometry relative="1" as="geometry" />
        </mxCell>
        <mxCell id="Fj85bXSeR_-tGHZ6afva-202" value="S47" style="ellipse;whiteSpace=wrap;html=1;aspect=fixed;" parent="1" vertex="1">
          <mxGeometry x="970" y="1668" width="80" height="80" as="geometry" />
        </mxCell>
        <mxCell id="Fj85bXSeR_-tGHZ6afva-204" value="V - {e}" style="endArrow=classic;html=1;rounded=0;exitX=0.5;exitY=0;exitDx=0;exitDy=0;align=left;labelPosition=right;verticalLabelPosition=top;verticalAlign=bottom;" parent="1" edge="1">
          <mxGeometry x="-0.122" y="-3" width="50" height="50" relative="1" as="geometry">
            <mxPoint x="1010" y="1668" as="sourcePoint" />
            <mxPoint x="1050" y="1618" as="targetPoint" />
            <mxPoint as="offset" />
          </mxGeometry>
        </mxCell>
        <mxCell id="Fj85bXSeR_-tGHZ6afva-205" value="alfa" style="text;html=1;align=center;verticalAlign=middle;whiteSpace=wrap;rounded=0;" parent="1" vertex="1">
          <mxGeometry x="1030" y="1598" width="60" height="30" as="geometry" />
        </mxCell>
        <mxCell id="Fj85bXSeR_-tGHZ6afva-206" value="S48" style="ellipse;whiteSpace=wrap;html=1;aspect=fixed;sketch=1;curveFitting=1;jiggle=2;" parent="1" vertex="1">
          <mxGeometry x="1120" y="1668" width="80" height="80" as="geometry" />
        </mxCell>
        <mxCell id="Fj85bXSeR_-tGHZ6afva-208" value="V" style="endArrow=none;startArrow=classic;html=1;rounded=0;endFill=0;" parent="1" edge="1">
          <mxGeometry width="50" height="50" relative="1" as="geometry">
            <mxPoint x="1110" y="1798" as="sourcePoint" />
            <mxPoint x="1160" y="1748" as="targetPoint" />
          </mxGeometry>
        </mxCell>
        <mxCell id="Fj85bXSeR_-tGHZ6afva-209" value="alfa" style="text;html=1;align=center;verticalAlign=middle;resizable=0;points=[];autosize=1;strokeColor=none;fillColor=none;" parent="1" vertex="1">
          <mxGeometry x="1080" y="1788" width="40" height="30" as="geometry" />
        </mxCell>
        <mxCell id="Fj85bXSeR_-tGHZ6afva-215" value="o" style="edgeStyle=orthogonalEdgeStyle;rounded=0;orthogonalLoop=1;jettySize=auto;html=1;" parent="1" source="Fj85bXSeR_-tGHZ6afva-210" target="Fj85bXSeR_-tGHZ6afva-214" edge="1">
          <mxGeometry relative="1" as="geometry" />
        </mxCell>
        <mxCell id="Fj85bXSeR_-tGHZ6afva-210" value="S49" style="ellipse;whiteSpace=wrap;html=1;aspect=fixed;" parent="1" vertex="1">
          <mxGeometry x="520" y="1818" width="80" height="80" as="geometry" />
        </mxCell>
        <mxCell id="Fj85bXSeR_-tGHZ6afva-212" value="V - {o}" style="endArrow=classic;html=1;rounded=0;exitX=0.5;exitY=0;exitDx=0;exitDy=0;align=left;labelPosition=right;verticalLabelPosition=top;verticalAlign=bottom;" parent="1" edge="1">
          <mxGeometry x="-0.122" y="-3" width="50" height="50" relative="1" as="geometry">
            <mxPoint x="560" y="1818" as="sourcePoint" />
            <mxPoint x="600" y="1768" as="targetPoint" />
            <mxPoint as="offset" />
          </mxGeometry>
        </mxCell>
        <mxCell id="Fj85bXSeR_-tGHZ6afva-213" value="alfa" style="text;html=1;align=center;verticalAlign=middle;whiteSpace=wrap;rounded=0;" parent="1" vertex="1">
          <mxGeometry x="580" y="1748" width="60" height="30" as="geometry" />
        </mxCell>
        <mxCell id="Fj85bXSeR_-tGHZ6afva-214" value="S50" style="ellipse;whiteSpace=wrap;html=1;aspect=fixed;sketch=1;curveFitting=1;jiggle=2;" parent="1" vertex="1">
          <mxGeometry x="680" y="1818" width="80" height="80" as="geometry" />
        </mxCell>
        <mxCell id="Fj85bXSeR_-tGHZ6afva-216" value="V" style="endArrow=none;startArrow=classic;html=1;rounded=0;endFill=0;" parent="1" edge="1">
          <mxGeometry width="50" height="50" relative="1" as="geometry">
            <mxPoint x="670" y="1948" as="sourcePoint" />
            <mxPoint x="720" y="1898" as="targetPoint" />
          </mxGeometry>
        </mxCell>
        <mxCell id="Fj85bXSeR_-tGHZ6afva-217" value="alfa" style="text;html=1;align=center;verticalAlign=middle;resizable=0;points=[];autosize=1;strokeColor=none;fillColor=none;" parent="1" vertex="1">
          <mxGeometry x="640" y="1938" width="40" height="30" as="geometry" />
        </mxCell>
        <mxCell id="Fj85bXSeR_-tGHZ6afva-223" value="o" style="edgeStyle=orthogonalEdgeStyle;rounded=0;orthogonalLoop=1;jettySize=auto;html=1;" parent="1" source="Fj85bXSeR_-tGHZ6afva-218" target="Fj85bXSeR_-tGHZ6afva-222" edge="1">
          <mxGeometry relative="1" as="geometry" />
        </mxCell>
        <mxCell id="Fj85bXSeR_-tGHZ6afva-218" value="S51" style="ellipse;whiteSpace=wrap;html=1;aspect=fixed;" parent="1" vertex="1">
          <mxGeometry x="520" y="1968" width="80" height="80" as="geometry" />
        </mxCell>
        <mxCell id="Fj85bXSeR_-tGHZ6afva-220" value="V - {o}" style="endArrow=classic;html=1;rounded=0;exitX=0.5;exitY=0;exitDx=0;exitDy=0;align=left;labelPosition=right;verticalLabelPosition=top;verticalAlign=bottom;" parent="1" edge="1">
          <mxGeometry x="-0.122" y="-3" width="50" height="50" relative="1" as="geometry">
            <mxPoint x="560" y="1968" as="sourcePoint" />
            <mxPoint x="600" y="1918" as="targetPoint" />
            <mxPoint as="offset" />
          </mxGeometry>
        </mxCell>
        <mxCell id="Fj85bXSeR_-tGHZ6afva-221" value="alfa" style="text;html=1;align=center;verticalAlign=middle;whiteSpace=wrap;rounded=0;" parent="1" vertex="1">
          <mxGeometry x="580" y="1898" width="60" height="30" as="geometry" />
        </mxCell>
        <mxCell id="Fj85bXSeR_-tGHZ6afva-225" value="t" style="edgeStyle=orthogonalEdgeStyle;rounded=0;orthogonalLoop=1;jettySize=auto;html=1;" parent="1" source="Fj85bXSeR_-tGHZ6afva-222" target="Fj85bXSeR_-tGHZ6afva-224" edge="1">
          <mxGeometry relative="1" as="geometry" />
        </mxCell>
        <mxCell id="Fj85bXSeR_-tGHZ6afva-222" value="S52" style="ellipse;whiteSpace=wrap;html=1;aspect=fixed;" parent="1" vertex="1">
          <mxGeometry x="680" y="1968" width="80" height="80" as="geometry" />
        </mxCell>
        <mxCell id="Fj85bXSeR_-tGHZ6afva-224" value="S53" style="ellipse;whiteSpace=wrap;html=1;aspect=fixed;sketch=1;curveFitting=1;jiggle=2;" parent="1" vertex="1">
          <mxGeometry x="820" y="1968" width="80" height="80" as="geometry" />
        </mxCell>
        <mxCell id="Fj85bXSeR_-tGHZ6afva-226" value="V - {t}" style="endArrow=classic;html=1;rounded=0;exitX=0.5;exitY=0;exitDx=0;exitDy=0;align=left;labelPosition=right;verticalLabelPosition=top;verticalAlign=bottom;" parent="1" edge="1">
          <mxGeometry x="-0.122" y="-3" width="50" height="50" relative="1" as="geometry">
            <mxPoint x="720" y="1968" as="sourcePoint" />
            <mxPoint x="760" y="1918" as="targetPoint" />
            <mxPoint as="offset" />
          </mxGeometry>
        </mxCell>
        <mxCell id="Fj85bXSeR_-tGHZ6afva-227" value="alfa" style="text;html=1;align=center;verticalAlign=middle;whiteSpace=wrap;rounded=0;" parent="1" vertex="1">
          <mxGeometry x="740" y="1898" width="60" height="30" as="geometry" />
        </mxCell>
        <mxCell id="Fj85bXSeR_-tGHZ6afva-228" value="V" style="endArrow=none;startArrow=classic;html=1;rounded=0;endFill=0;" parent="1" edge="1">
          <mxGeometry width="50" height="50" relative="1" as="geometry">
            <mxPoint x="810" y="2098" as="sourcePoint" />
            <mxPoint x="860" y="2048" as="targetPoint" />
          </mxGeometry>
        </mxCell>
        <mxCell id="Fj85bXSeR_-tGHZ6afva-229" value="alfa" style="text;html=1;align=center;verticalAlign=middle;resizable=0;points=[];autosize=1;strokeColor=none;fillColor=none;" parent="1" vertex="1">
          <mxGeometry x="780" y="2088" width="40" height="30" as="geometry" />
        </mxCell>
        <mxCell id="Fj85bXSeR_-tGHZ6afva-233" value="e" style="edgeStyle=orthogonalEdgeStyle;rounded=0;orthogonalLoop=1;jettySize=auto;html=1;" parent="1" source="Fj85bXSeR_-tGHZ6afva-230" target="Fj85bXSeR_-tGHZ6afva-232" edge="1">
          <mxGeometry relative="1" as="geometry" />
        </mxCell>
        <mxCell id="Fj85bXSeR_-tGHZ6afva-230" value="S54" style="ellipse;whiteSpace=wrap;html=1;aspect=fixed;" parent="1" vertex="1">
          <mxGeometry x="820" y="20" width="80" height="80" as="geometry" />
        </mxCell>
        <mxCell id="Fj85bXSeR_-tGHZ6afva-239" value="d" style="edgeStyle=orthogonalEdgeStyle;rounded=0;orthogonalLoop=1;jettySize=auto;html=1;" parent="1" source="Fj85bXSeR_-tGHZ6afva-232" target="Fj85bXSeR_-tGHZ6afva-238" edge="1">
          <mxGeometry relative="1" as="geometry" />
        </mxCell>
        <mxCell id="Fj85bXSeR_-tGHZ6afva-232" value="S55" style="ellipse;whiteSpace=wrap;html=1;aspect=fixed;" parent="1" vertex="1">
          <mxGeometry x="970" y="20" width="80" height="80" as="geometry" />
        </mxCell>
        <mxCell id="Fj85bXSeR_-tGHZ6afva-234" value="V - {e}" style="endArrow=classic;html=1;rounded=0;align=right;labelPosition=left;verticalLabelPosition=top;verticalAlign=bottom;" parent="1" edge="1">
          <mxGeometry x="-0.122" y="-3" width="50" height="50" relative="1" as="geometry">
            <mxPoint x="860" y="20" as="sourcePoint" />
            <mxPoint x="900" y="-30" as="targetPoint" />
            <mxPoint as="offset" />
          </mxGeometry>
        </mxCell>
        <mxCell id="Fj85bXSeR_-tGHZ6afva-235" value="alfa" style="text;html=1;align=center;verticalAlign=middle;whiteSpace=wrap;rounded=0;" parent="1" vertex="1">
          <mxGeometry x="880" y="-50" width="60" height="30" as="geometry" />
        </mxCell>
        <mxCell id="Fj85bXSeR_-tGHZ6afva-236" value="V - {d}" style="endArrow=classic;html=1;rounded=0;align=right;labelPosition=left;verticalLabelPosition=top;verticalAlign=bottom;" parent="1" edge="1">
          <mxGeometry x="-0.122" y="-3" width="50" height="50" relative="1" as="geometry">
            <mxPoint x="1010" y="20" as="sourcePoint" />
            <mxPoint x="1050" y="-30" as="targetPoint" />
            <mxPoint as="offset" />
          </mxGeometry>
        </mxCell>
        <mxCell id="Fj85bXSeR_-tGHZ6afva-237" value="alfa" style="text;html=1;align=center;verticalAlign=middle;whiteSpace=wrap;rounded=0;" parent="1" vertex="1">
          <mxGeometry x="1030" y="-50" width="60" height="30" as="geometry" />
        </mxCell>
        <mxCell id="Fj85bXSeR_-tGHZ6afva-243" value="u" style="edgeStyle=orthogonalEdgeStyle;rounded=0;orthogonalLoop=1;jettySize=auto;html=1;" parent="1" source="Fj85bXSeR_-tGHZ6afva-238" target="Fj85bXSeR_-tGHZ6afva-242" edge="1">
          <mxGeometry relative="1" as="geometry" />
        </mxCell>
        <mxCell id="Fj85bXSeR_-tGHZ6afva-238" value="S56" style="ellipse;whiteSpace=wrap;html=1;aspect=fixed;" parent="1" vertex="1">
          <mxGeometry x="1120" y="20" width="80" height="80" as="geometry" />
        </mxCell>
        <mxCell id="Fj85bXSeR_-tGHZ6afva-240" value="V - {u}" style="endArrow=classic;html=1;rounded=0;align=right;labelPosition=left;verticalLabelPosition=top;verticalAlign=bottom;" parent="1" edge="1">
          <mxGeometry x="-0.122" y="-3" width="50" height="50" relative="1" as="geometry">
            <mxPoint x="1160" y="20" as="sourcePoint" />
            <mxPoint x="1200" y="-30" as="targetPoint" />
            <mxPoint as="offset" />
          </mxGeometry>
        </mxCell>
        <mxCell id="Fj85bXSeR_-tGHZ6afva-241" value="alfa" style="text;html=1;align=center;verticalAlign=middle;whiteSpace=wrap;rounded=0;" parent="1" vertex="1">
          <mxGeometry x="1180" y="-50" width="60" height="30" as="geometry" />
        </mxCell>
        <mxCell id="Fj85bXSeR_-tGHZ6afva-247" value="r" style="edgeStyle=orthogonalEdgeStyle;rounded=0;orthogonalLoop=1;jettySize=auto;html=1;" parent="1" source="Fj85bXSeR_-tGHZ6afva-242" target="Fj85bXSeR_-tGHZ6afva-246" edge="1">
          <mxGeometry relative="1" as="geometry" />
        </mxCell>
        <mxCell id="Fj85bXSeR_-tGHZ6afva-242" value="S57" style="ellipse;whiteSpace=wrap;html=1;aspect=fixed;" parent="1" vertex="1">
          <mxGeometry x="1270" y="20" width="80" height="80" as="geometry" />
        </mxCell>
        <mxCell id="Fj85bXSeR_-tGHZ6afva-244" value="V - {r}" style="endArrow=classic;html=1;rounded=0;align=right;labelPosition=left;verticalLabelPosition=top;verticalAlign=bottom;" parent="1" edge="1">
          <mxGeometry x="-0.122" y="-3" width="50" height="50" relative="1" as="geometry">
            <mxPoint x="1310" y="20" as="sourcePoint" />
            <mxPoint x="1350" y="-30" as="targetPoint" />
            <mxPoint as="offset" />
          </mxGeometry>
        </mxCell>
        <mxCell id="Fj85bXSeR_-tGHZ6afva-245" value="alfa" style="text;html=1;align=center;verticalAlign=middle;whiteSpace=wrap;rounded=0;" parent="1" vertex="1">
          <mxGeometry x="1330" y="-50" width="60" height="30" as="geometry" />
        </mxCell>
        <mxCell id="Fj85bXSeR_-tGHZ6afva-251" value="e" style="edgeStyle=orthogonalEdgeStyle;rounded=0;orthogonalLoop=1;jettySize=auto;html=1;" parent="1" source="Fj85bXSeR_-tGHZ6afva-246" target="Fj85bXSeR_-tGHZ6afva-250" edge="1">
          <mxGeometry relative="1" as="geometry" />
        </mxCell>
        <mxCell id="Fj85bXSeR_-tGHZ6afva-246" value="S58" style="ellipse;whiteSpace=wrap;html=1;aspect=fixed;" parent="1" vertex="1">
          <mxGeometry x="1420" y="20" width="80" height="80" as="geometry" />
        </mxCell>
        <mxCell id="Fj85bXSeR_-tGHZ6afva-248" value="V - {e}" style="endArrow=classic;html=1;rounded=0;align=right;labelPosition=left;verticalLabelPosition=top;verticalAlign=bottom;" parent="1" edge="1">
          <mxGeometry x="-0.122" y="-3" width="50" height="50" relative="1" as="geometry">
            <mxPoint x="1460" y="20" as="sourcePoint" />
            <mxPoint x="1500" y="-30" as="targetPoint" />
            <mxPoint as="offset" />
          </mxGeometry>
        </mxCell>
        <mxCell id="Fj85bXSeR_-tGHZ6afva-249" value="alfa" style="text;html=1;align=center;verticalAlign=middle;whiteSpace=wrap;rounded=0;" parent="1" vertex="1">
          <mxGeometry x="1480" y="-50" width="60" height="30" as="geometry" />
        </mxCell>
        <mxCell id="Fj85bXSeR_-tGHZ6afva-250" value="S59" style="ellipse;whiteSpace=wrap;html=1;aspect=fixed;sketch=1;curveFitting=1;jiggle=2;" parent="1" vertex="1">
          <mxGeometry x="1574" y="20" width="80" height="80" as="geometry" />
        </mxCell>
        <mxCell id="Fj85bXSeR_-tGHZ6afva-252" value="V" style="endArrow=none;startArrow=classic;html=1;rounded=0;endFill=0;" parent="1" edge="1">
          <mxGeometry width="50" height="50" relative="1" as="geometry">
            <mxPoint x="1560" y="150" as="sourcePoint" />
            <mxPoint x="1610" y="100" as="targetPoint" />
          </mxGeometry>
        </mxCell>
        <mxCell id="Fj85bXSeR_-tGHZ6afva-253" value="alfa" style="text;html=1;align=center;verticalAlign=middle;resizable=0;points=[];autosize=1;strokeColor=none;fillColor=none;" parent="1" vertex="1">
          <mxGeometry x="1530" y="138" width="40" height="30" as="geometry" />
        </mxCell>
        <mxCell id="Fj85bXSeR_-tGHZ6afva-257" value="}" style="edgeStyle=orthogonalEdgeStyle;rounded=0;orthogonalLoop=1;jettySize=auto;html=1;exitX=1;exitY=0.5;exitDx=0;exitDy=0;entryX=0;entryY=0;entryDx=0;entryDy=0;" parent="1" source="Fj85bXSeR_-tGHZ6afva-254" target="Fj85bXSeR_-tGHZ6afva-1" edge="1">
          <mxGeometry relative="1" as="geometry">
            <Array as="points">
              <mxPoint x="310" y="60" />
              <mxPoint x="310" y="182" />
            </Array>
          </mxGeometry>
        </mxCell>
        <mxCell id="Fj85bXSeR_-tGHZ6afva-254" value="S60" style="ellipse;whiteSpace=wrap;html=1;aspect=fixed;" parent="1" vertex="1">
          <mxGeometry x="170" y="20" width="80" height="80" as="geometry" />
        </mxCell>
        <mxCell id="Fj85bXSeR_-tGHZ6afva-258" value="&lt;span style=&quot;font-family: Arial, Helvetica; text-align: left;&quot;&gt;Î£ - }&lt;/span&gt;" style="curved=1;endArrow=classic;html=1;rounded=0;entryX=0;entryY=0;entryDx=0;entryDy=0;exitX=1;exitY=0;exitDx=0;exitDy=0;" parent="1" edge="1">
          <mxGeometry x="-0.0268" y="-10" width="50" height="50" relative="1" as="geometry">
            <mxPoint x="238" y="32" as="sourcePoint" />
            <mxPoint x="182" y="32" as="targetPoint" />
            <Array as="points">
              <mxPoint x="236" />
              <mxPoint x="216" y="-10" />
              <mxPoint x="196" />
            </Array>
            <mxPoint x="4" y="-1" as="offset" />
          </mxGeometry>
        </mxCell>
        <mxCell id="Fj85bXSeR_-tGHZ6afva-259" value="S61" style="ellipse;whiteSpace=wrap;html=1;aspect=fixed;" parent="1" vertex="1">
          <mxGeometry x="-40" y="170" width="80" height="80" as="geometry" />
        </mxCell>
        <mxCell id="Fj85bXSeR_-tGHZ6afva-261" value="&lt;span style=&quot;font-family: Arial, Helvetica; text-align: left;&quot;&gt;[a..z _ 0..9]&lt;/span&gt;" style="curved=1;endArrow=classic;html=1;rounded=0;entryX=0;entryY=0;entryDx=0;entryDy=0;exitX=1;exitY=0;exitDx=0;exitDy=0;" parent="1" edge="1">
          <mxGeometry x="-0.0268" y="-10" width="50" height="50" relative="1" as="geometry">
            <mxPoint x="28" y="180" as="sourcePoint" />
            <mxPoint x="-28" y="180" as="targetPoint" />
            <Array as="points">
              <mxPoint x="26" y="148" />
              <mxPoint x="6" y="138" />
              <mxPoint x="-14" y="148" />
            </Array>
            <mxPoint x="4" y="-1" as="offset" />
          </mxGeometry>
        </mxCell>
        <mxCell id="Fj85bXSeR_-tGHZ6afva-262" value="" style="endArrow=classic;html=1;rounded=0;" parent="1" edge="1">
          <mxGeometry width="50" height="50" relative="1" as="geometry">
            <mxPoint x="-80" y="288" as="sourcePoint" />
            <mxPoint x="-30" y="238" as="targetPoint" />
          </mxGeometry>
        </mxCell>
        <mxCell id="Fj85bXSeR_-tGHZ6afva-263" value="alfa" style="text;html=1;align=center;verticalAlign=middle;resizable=0;points=[];autosize=1;strokeColor=none;fillColor=none;" parent="1" vertex="1">
          <mxGeometry x="-110" y="278" width="40" height="30" as="geometry" />
        </mxCell>
        <mxCell id="Fj85bXSeR_-tGHZ6afva-268" value="." style="edgeStyle=orthogonalEdgeStyle;rounded=0;orthogonalLoop=1;jettySize=auto;html=1;exitX=0;exitY=0.5;exitDx=0;exitDy=0;" parent="1" source="Fj85bXSeR_-tGHZ6afva-264" target="Fj85bXSeR_-tGHZ6afva-267" edge="1">
          <mxGeometry y="-8" relative="1" as="geometry">
            <mxPoint as="offset" />
          </mxGeometry>
        </mxCell>
        <mxCell id="Fj85bXSeR_-tGHZ6afva-264" value="S62" style="ellipse;whiteSpace=wrap;html=1;aspect=fixed;sketch=1;curveFitting=1;jiggle=2;" parent="1" vertex="1">
          <mxGeometry x="-40" y="318" width="80" height="80" as="geometry" />
        </mxCell>
        <mxCell id="Fj85bXSeR_-tGHZ6afva-266" value="&lt;span style=&quot;font-family: Arial, Helvetica; text-align: left;&quot;&gt;[0..9]&lt;/span&gt;" style="curved=1;endArrow=classic;html=1;rounded=0;entryX=0;entryY=0;entryDx=0;entryDy=0;exitX=1;exitY=0;exitDx=0;exitDy=0;" parent="1" edge="1">
          <mxGeometry x="-0.0268" y="-10" width="50" height="50" relative="1" as="geometry">
            <mxPoint x="28" y="330" as="sourcePoint" />
            <mxPoint x="-28" y="330" as="targetPoint" />
            <Array as="points">
              <mxPoint x="26" y="298" />
              <mxPoint x="6" y="288" />
              <mxPoint x="-14" y="298" />
            </Array>
            <mxPoint x="4" y="-1" as="offset" />
          </mxGeometry>
        </mxCell>
        <mxCell id="Fj85bXSeR_-tGHZ6afva-267" value="S63" style="ellipse;whiteSpace=wrap;html=1;aspect=fixed;gradientColor=none;sketch=1;curveFitting=1;jiggle=2;" parent="1" vertex="1">
          <mxGeometry x="-240" y="318" width="80" height="80" as="geometry" />
        </mxCell>
        <mxCell id="Fj85bXSeR_-tGHZ6afva-269" value="&lt;span style=&quot;font-family: Arial, Helvetica; text-align: left;&quot;&gt;[0..9]&lt;/span&gt;" style="curved=1;endArrow=classic;html=1;rounded=0;entryX=0;entryY=0;entryDx=0;entryDy=0;exitX=1;exitY=0;exitDx=0;exitDy=0;" parent="1" edge="1">
          <mxGeometry x="-0.0268" y="-10" width="50" height="50" relative="1" as="geometry">
            <mxPoint x="-172" y="330" as="sourcePoint" />
            <mxPoint x="-228" y="330" as="targetPoint" />
            <Array as="points">
              <mxPoint x="-174" y="298" />
              <mxPoint x="-194" y="288" />
              <mxPoint x="-214" y="298" />
            </Array>
            <mxPoint x="4" y="-1" as="offset" />
          </mxGeometry>
        </mxCell>
        <mxCell id="Fj85bXSeR_-tGHZ6afva-270" value="S64" style="ellipse;whiteSpace=wrap;html=1;aspect=fixed;sketch=1;curveFitting=1;jiggle=2;" parent="1" vertex="1">
          <mxGeometry x="-40" y="490" width="80" height="80" as="geometry" />
        </mxCell>
        <mxCell id="Fj85bXSeR_-tGHZ6afva-283" value="=" style="edgeStyle=orthogonalEdgeStyle;rounded=0;orthogonalLoop=1;jettySize=auto;html=1;exitX=1;exitY=0.5;exitDx=0;exitDy=0;entryX=1;entryY=0.5;entryDx=0;entryDy=0;" parent="1" source="Fj85bXSeR_-tGHZ6afva-272" target="Fj85bXSeR_-tGHZ6afva-282" edge="1">
          <mxGeometry x="0.8667" y="-10" relative="1" as="geometry">
            <Array as="points">
              <mxPoint x="360" y="530" />
              <mxPoint x="360" y="970" />
            </Array>
            <mxPoint as="offset" />
          </mxGeometry>
        </mxCell>
        <mxCell id="Fj85bXSeR_-tGHZ6afva-272" value="S65" style="ellipse;whiteSpace=wrap;html=1;aspect=fixed;sketch=1;curveFitting=1;jiggle=2;" parent="1" vertex="1">
          <mxGeometry x="200" y="490" width="80" height="80" as="geometry" />
        </mxCell>
        <mxCell id="Fj85bXSeR_-tGHZ6afva-274" value="S66" style="ellipse;whiteSpace=wrap;html=1;aspect=fixed;sketch=1;curveFitting=1;jiggle=2;" parent="1" vertex="1">
          <mxGeometry x="-40" y="640" width="80" height="80" as="geometry" />
        </mxCell>
        <mxCell id="Fj85bXSeR_-tGHZ6afva-276" value="S67" style="ellipse;whiteSpace=wrap;html=1;aspect=fixed;sketch=1;curveFitting=1;jiggle=2;" parent="1" vertex="1">
          <mxGeometry x="200" y="640" width="80" height="80" as="geometry" />
        </mxCell>
        <mxCell id="Fj85bXSeR_-tGHZ6afva-278" value="S68" style="ellipse;whiteSpace=wrap;html=1;aspect=fixed;sketch=1;curveFitting=1;jiggle=2;" parent="1" vertex="1">
          <mxGeometry x="-40" y="790" width="80" height="80" as="geometry" />
        </mxCell>
        <mxCell id="Fj85bXSeR_-tGHZ6afva-279" value="S69" style="ellipse;whiteSpace=wrap;html=1;aspect=fixed;sketch=1;curveFitting=1;jiggle=2;" parent="1" vertex="1">
          <mxGeometry x="200" y="790" width="80" height="80" as="geometry" />
        </mxCell>
        <mxCell id="Fj85bXSeR_-tGHZ6afva-282" value="S70" style="ellipse;whiteSpace=wrap;html=1;aspect=fixed;sketch=1;curveFitting=1;jiggle=2;" parent="1" vertex="1">
          <mxGeometry x="200" y="930" width="80" height="80" as="geometry" />
        </mxCell>
        <mxCell id="Fj85bXSeR_-tGHZ6afva-284" value="S71" style="ellipse;whiteSpace=wrap;html=1;aspect=fixed;sketch=1;curveFitting=1;jiggle=2;" parent="1" vertex="1">
          <mxGeometry x="170" y="-400" width="80" height="80" as="geometry" />
        </mxCell>
        <mxCell id="Fj85bXSeR_-tGHZ6afva-285" value="S72" style="ellipse;whiteSpace=wrap;html=1;aspect=fixed;sketch=1;curveFitting=1;jiggle=2;" parent="1" vertex="1">
          <mxGeometry x="170" y="-560" width="80" height="80" as="geometry" />
        </mxCell>
        <mxCell id="Fj85bXSeR_-tGHZ6afva-291" value="r" style="edgeStyle=orthogonalEdgeStyle;rounded=0;orthogonalLoop=1;jettySize=auto;html=1;exitX=0;exitY=0.5;exitDx=0;exitDy=0;" parent="1" source="Fj85bXSeR_-tGHZ6afva-286" target="Fj85bXSeR_-tGHZ6afva-287" edge="1">
          <mxGeometry relative="1" as="geometry" />
        </mxCell>
        <mxCell id="Fj85bXSeR_-tGHZ6afva-286" value="S73" style="ellipse;whiteSpace=wrap;html=1;aspect=fixed;" parent="1" vertex="1">
          <mxGeometry x="170" y="-720" width="80" height="80" as="geometry" />
        </mxCell>
        <mxCell id="Fj85bXSeR_-tGHZ6afva-287" value="S74" style="ellipse;whiteSpace=wrap;html=1;aspect=fixed;sketch=1;curveFitting=1;jiggle=2;" parent="1" vertex="1">
          <mxGeometry x="-40" y="-720" width="80" height="80" as="geometry" />
        </mxCell>
        <mxCell id="Fj85bXSeR_-tGHZ6afva-293" value="V - {r}" style="endArrow=classic;html=1;rounded=0;" parent="1" edge="1">
          <mxGeometry width="50" height="50" relative="1" as="geometry">
            <mxPoint x="210" y="-720" as="sourcePoint" />
            <mxPoint x="260" y="-770" as="targetPoint" />
          </mxGeometry>
        </mxCell>
        <mxCell id="Fj85bXSeR_-tGHZ6afva-294" value="alfa" style="text;strokeColor=none;align=center;fillColor=none;html=1;verticalAlign=middle;whiteSpace=wrap;rounded=0;" parent="1" vertex="1">
          <mxGeometry x="240" y="-790" width="60" height="30" as="geometry" />
        </mxCell>
        <mxCell id="Fj85bXSeR_-tGHZ6afva-295" value="V" style="endArrow=none;startArrow=classic;html=1;rounded=0;endFill=0;" parent="1" edge="1">
          <mxGeometry width="50" height="50" relative="1" as="geometry">
            <mxPoint x="-50" y="-590" as="sourcePoint" />
            <mxPoint y="-640" as="targetPoint" />
          </mxGeometry>
        </mxCell>
        <mxCell id="Fj85bXSeR_-tGHZ6afva-296" value="alfa" style="text;html=1;align=center;verticalAlign=middle;resizable=0;points=[];autosize=1;strokeColor=none;fillColor=none;" parent="1" vertex="1">
          <mxGeometry x="-80" y="-602" width="40" height="30" as="geometry" />
        </mxCell>
        <mxCell id="Fj85bXSeR_-tGHZ6afva-297" value="S75" style="ellipse;whiteSpace=wrap;html=1;aspect=fixed;sketch=1;curveFitting=1;jiggle=2;" parent="1" vertex="1">
          <mxGeometry x="747" y="-400" width="80" height="80" as="geometry" />
        </mxCell>
        <mxCell id="Fj85bXSeR_-tGHZ6afva-298" value="S76" style="ellipse;whiteSpace=wrap;html=1;aspect=fixed;sketch=1;curveFitting=1;jiggle=2;" parent="1" vertex="1">
          <mxGeometry x="750" y="-560" width="80" height="80" as="geometry" />
        </mxCell>
        <mxCell id="Fj85bXSeR_-tGHZ6afva-308" value="n" style="edgeStyle=orthogonalEdgeStyle;rounded=0;orthogonalLoop=1;jettySize=auto;html=1;" parent="1" source="Fj85bXSeR_-tGHZ6afva-299" target="Fj85bXSeR_-tGHZ6afva-300" edge="1">
          <mxGeometry relative="1" as="geometry" />
        </mxCell>
        <mxCell id="Fj85bXSeR_-tGHZ6afva-299" value="S77" style="ellipse;whiteSpace=wrap;html=1;aspect=fixed;" parent="1" vertex="1">
          <mxGeometry x="750" y="-720" width="80" height="80" as="geometry" />
        </mxCell>
        <mxCell id="Fj85bXSeR_-tGHZ6afva-311" value="d" style="edgeStyle=orthogonalEdgeStyle;rounded=0;orthogonalLoop=1;jettySize=auto;html=1;" parent="1" source="Fj85bXSeR_-tGHZ6afva-300" target="Fj85bXSeR_-tGHZ6afva-301" edge="1">
          <mxGeometry relative="1" as="geometry" />
        </mxCell>
        <mxCell id="Fj85bXSeR_-tGHZ6afva-300" value="S78" style="ellipse;whiteSpace=wrap;html=1;aspect=fixed;" parent="1" vertex="1">
          <mxGeometry x="950" y="-720" width="80" height="80" as="geometry" />
        </mxCell>
        <mxCell id="Fj85bXSeR_-tGHZ6afva-301" value="S79" style="ellipse;whiteSpace=wrap;html=1;aspect=fixed;sketch=1;curveFitting=1;jiggle=2;" parent="1" vertex="1">
          <mxGeometry x="1150" y="-720" width="80" height="80" as="geometry" />
        </mxCell>
        <mxCell id="Fj85bXSeR_-tGHZ6afva-306" value="V - {n}" style="endArrow=classic;html=1;rounded=0;" parent="1" edge="1">
          <mxGeometry width="50" height="50" relative="1" as="geometry">
            <mxPoint x="790" y="-720" as="sourcePoint" />
            <mxPoint x="840" y="-770" as="targetPoint" />
          </mxGeometry>
        </mxCell>
        <mxCell id="Fj85bXSeR_-tGHZ6afva-307" value="alfa" style="text;strokeColor=none;align=center;fillColor=none;html=1;verticalAlign=middle;whiteSpace=wrap;rounded=0;" parent="1" vertex="1">
          <mxGeometry x="820" y="-790" width="60" height="30" as="geometry" />
        </mxCell>
        <mxCell id="Fj85bXSeR_-tGHZ6afva-309" value="V - {d}" style="endArrow=classic;html=1;rounded=0;" parent="1" edge="1">
          <mxGeometry width="50" height="50" relative="1" as="geometry">
            <mxPoint x="990" y="-720" as="sourcePoint" />
            <mxPoint x="1040" y="-770" as="targetPoint" />
          </mxGeometry>
        </mxCell>
        <mxCell id="Fj85bXSeR_-tGHZ6afva-310" value="alfa" style="text;strokeColor=none;align=center;fillColor=none;html=1;verticalAlign=middle;whiteSpace=wrap;rounded=0;" parent="1" vertex="1">
          <mxGeometry x="1020" y="-790" width="60" height="30" as="geometry" />
        </mxCell>
        <mxCell id="Fj85bXSeR_-tGHZ6afva-312" value="V" style="endArrow=none;startArrow=classic;html=1;rounded=0;endFill=0;" parent="1" edge="1">
          <mxGeometry width="50" height="50" relative="1" as="geometry">
            <mxPoint x="1140" y="-590" as="sourcePoint" />
            <mxPoint x="1190" y="-640" as="targetPoint" />
          </mxGeometry>
        </mxCell>
        <mxCell id="Fj85bXSeR_-tGHZ6afva-315" value="alfa" style="text;html=1;align=center;verticalAlign=middle;resizable=0;points=[];autosize=1;strokeColor=none;fillColor=none;" parent="1" vertex="1">
          <mxGeometry x="1110" y="-602" width="40" height="30" as="geometry" />
        </mxCell>
        <mxCell id="4K1iLASpcaPQerN0IcDK-2" value="=" style="edgeStyle=orthogonalEdgeStyle;rounded=0;orthogonalLoop=1;jettySize=auto;html=1;" edge="1" parent="1" source="Fj85bXSeR_-tGHZ6afva-316" target="Fj85bXSeR_-tGHZ6afva-318">
          <mxGeometry relative="1" as="geometry" />
        </mxCell>
        <mxCell id="4K1iLASpcaPQerN0IcDK-3" value="&amp;gt;" style="edgeStyle=orthogonalEdgeStyle;rounded=0;orthogonalLoop=1;jettySize=auto;html=1;" edge="1" parent="1" source="Fj85bXSeR_-tGHZ6afva-316" target="Fj85bXSeR_-tGHZ6afva-320">
          <mxGeometry relative="1" as="geometry" />
        </mxCell>
        <mxCell id="Fj85bXSeR_-tGHZ6afva-316" value="S80" style="ellipse;whiteSpace=wrap;html=1;aspect=fixed;sketch=1;curveFitting=1;jiggle=2;" parent="1" vertex="1">
          <mxGeometry x="300" y="-990" width="80" height="80" as="geometry" />
        </mxCell>
        <mxCell id="4K1iLASpcaPQerN0IcDK-4" value="=" style="edgeStyle=orthogonalEdgeStyle;rounded=0;orthogonalLoop=1;jettySize=auto;html=1;" edge="1" parent="1" source="Fj85bXSeR_-tGHZ6afva-317" target="Fj85bXSeR_-tGHZ6afva-319">
          <mxGeometry relative="1" as="geometry" />
        </mxCell>
        <mxCell id="Fj85bXSeR_-tGHZ6afva-317" value="S83" style="ellipse;whiteSpace=wrap;html=1;aspect=fixed;sketch=1;curveFitting=1;jiggle=2;" parent="1" vertex="1">
          <mxGeometry x="600" y="-990" width="80" height="80" as="geometry" />
        </mxCell>
        <mxCell id="Fj85bXSeR_-tGHZ6afva-318" value="S81" style="ellipse;whiteSpace=wrap;html=1;aspect=fixed;sketch=1;curveFitting=1;jiggle=2;" parent="1" vertex="1">
          <mxGeometry x="110" y="-990" width="80" height="80" as="geometry" />
        </mxCell>
        <mxCell id="Fj85bXSeR_-tGHZ6afva-319" value="S84" style="ellipse;whiteSpace=wrap;html=1;aspect=fixed;sketch=1;curveFitting=1;jiggle=2;" parent="1" vertex="1">
          <mxGeometry x="600" y="-1169" width="80" height="80" as="geometry" />
        </mxCell>
        <mxCell id="Fj85bXSeR_-tGHZ6afva-320" value="S82" style="ellipse;whiteSpace=wrap;html=1;aspect=fixed;sketch=1;curveFitting=1;jiggle=2;" parent="1" vertex="1">
          <mxGeometry x="300" y="-1169" width="80" height="80" as="geometry" />
        </mxCell>
      </root>
    </mxGraphModel>
  </diagram>
</mxfile>
